<svg xmlns="http://www.w3.org/2000/svg" xmlns:xlink="http://www.w3.org/1999/xlink" width="800" zoomAndPan="magnify" viewBox="0 0 600 299.999988" height="400" preserveAspectRatio="xMidYMid meet" version="1.0"><defs><clipPath id="e7cc73135c"><path d="M 229 34.191406 L 375 34.191406 L 375 126 L 229 126 Z M 229 34.191406 " clip-rule="nonzero"/></clipPath><clipPath id="d7dc3b12b0"><path d="M 297 125 L 418 125 L 418 265.941406 L 297 265.941406 Z M 297 125 " clip-rule="nonzero"/></clipPath></defs><g clip-path="url(#e7cc73135c)"><path fill="#333333" d="M 272.859375 122.085938 C 257.917969 113.644531 243.632812 105.570312 229.015625 97.3125 C 229.792969 95.394531 230.238281 93.855469 231 92.488281 C 238.109375 79.695312 245.15625 66.867188 252.449219 54.179688 C 259.957031 41.117188 271.445312 34.523438 286.5 34.308594 C 295.363281 34.183594 304.230469 34.183594 313.09375 34.3125 C 328.171875 34.535156 339.539062 41.261719 347.070312 54.304688 C 351.390625 61.78125 355.511719 69.367188 360.03125 77.457031 C 364.90625 74.785156 369.460938 72.289062 374.015625 69.796875 C 374.332031 70.085938 374.648438 70.375 374.964844 70.664062 C 369.3125 88.839844 363.660156 107.019531 357.816406 125.824219 C 338.828125 121.089844 320.363281 116.488281 300.523438 111.539062 C 306.003906 108.230469 310.332031 105.613281 315.382812 102.566406 C 310.328125 93.476562 305.386719 84.59375 299.898438 74.722656 C 290.210938 90.480469 282.269531 106.171875 272.859375 122.085938 Z M 354.992188 120.777344 C 359.402344 106.621094 363.640625 93.007812 368.230469 78.28125 C 364.289062 80.09375 361.578125 81.339844 358.5 82.753906 C 357.289062 80.789062 356.175781 79.101562 355.179688 77.347656 C 351.015625 69.992188 347.019531 62.535156 342.707031 55.265625 C 336.441406 44.691406 326.972656 39.074219 314.738281 38.683594 C 304.644531 38.363281 294.527344 38.542969 284.421875 38.707031 C 281.648438 38.75 278.886719 39.53125 276.121094 39.972656 C 289.335938 48.226562 296.855469 60.441406 303.816406 73.167969 C 308.660156 82.035156 313.679688 90.808594 318.589844 99.636719 C 319.367188 101.03125 319.988281 102.511719 320.808594 104.21875 C 317.960938 106.109375 315.375 107.828125 311.886719 110.144531 C 326.953125 113.859375 340.691406 117.25 354.992188 120.777344 Z M 271.375 116.445312 C 280.328125 100.433594 288.828125 85.222656 297.28125 70.105469 C 292.878906 62.472656 288.332031 55.617188 281.941406 50.257812 C 279.460938 48.175781 276.585938 46.464844 273.667969 45.03125 C 270.003906 43.230469 266.359375 43.632812 263.582031 46.90625 C 260.800781 50.179688 257.828125 53.402344 255.675781 57.078125 C 249.132812 68.269531 242.933594 79.660156 236.628906 90.988281 C 235.863281 92.367188 235.273438 93.84375 234.464844 95.574219 C 246.730469 102.507812 258.679688 109.265625 271.375 116.445312 Z M 271.375 116.445312 " fill-opacity="1" fill-rule="nonzero"/></g><path fill="#333333" d="M 229.492188 197.921875 C 248.195312 198.089844 265.597656 198.25 283.410156 198.410156 C 283.410156 215.609375 283.410156 232.183594 283.410156 249.136719 C 281.625 249.289062 280.039062 249.539062 278.449219 249.542969 C 263.800781 249.550781 249.152344 249.636719 234.507812 249.457031 C 220.417969 249.28125 209.445312 243.117188 202.152344 231.074219 C 196.8125 222.261719 191.773438 213.242188 187.070312 204.070312 C 180.996094 192.230469 181.1875 180.167969 187.671875 168.503906 C 192.167969 160.410156 197.121094 152.570312 202.257812 143.964844 C 197.753906 140.992188 193.386719 138.105469 187.808594 134.425781 C 207.640625 130.191406 226.234375 126.21875 245.503906 122.105469 C 250.664062 140.957031 255.691406 159.3125 260.71875 177.671875 C 260.402344 177.9375 260.085938 178.207031 259.769531 178.476562 C 255.445312 175.992188 251.121094 173.511719 246.105469 170.628906 C 240.738281 179.449219 235.464844 188.113281 229.492188 197.921875 Z M 252.679688 169.226562 C 253.089844 169.015625 253.492188 168.808594 253.902344 168.597656 C 250.132812 154.832031 246.367188 141.0625 242.519531 127.019531 C 227.890625 130.140625 214.082031 133.085938 199.261719 136.246094 C 202.601562 138.800781 205.09375 140.710938 207.789062 142.773438 C 206.40625 145.175781 205.3125 147.140625 204.15625 149.066406 C 200.125 155.789062 195.992188 162.457031 192.035156 169.222656 C 185.460938 180.476562 185.234375 191.960938 191.402344 203.421875 C 195.996094 211.960938 200.769531 220.40625 205.652344 228.78125 C 207.140625 231.335938 209.265625 233.523438 211.582031 236.496094 C 213.515625 218.738281 215.597656 212.714844 224.617188 197.871094 C 230.1875 188.703125 235.730469 179.515625 241.3125 170.355469 C 242.363281 168.628906 243.542969 166.984375 244.808594 165.082031 C 247.679688 166.59375 250.183594 167.910156 252.679688 169.226562 Z M 279.457031 202.394531 C 262.292969 202.394531 245.835938 202.40625 229.375 202.378906 C 227.195312 202.375 226.050781 203.605469 225.097656 205.335938 C 221.296875 212.21875 217.9375 219.285156 216.722656 227.132812 C 216.320312 229.742188 216.285156 232.457031 216.46875 235.097656 C 216.769531 239.457031 219.050781 242.550781 223.460938 243.390625 C 228.085938 244.269531 232.78125 245.207031 237.464844 245.308594 C 249.820312 245.574219 262.183594 245.417969 274.542969 245.378906 C 276.125 245.371094 277.703125 245.046875 279.457031 244.847656 C 279.457031 230.714844 279.457031 216.992188 279.457031 202.394531 Z M 279.457031 202.394531 " fill-opacity="1" fill-rule="nonzero"/><g clip-path="url(#d7dc3b12b0)"><path fill="#333333" d="M 338.132812 249.835938 C 338.132812 255.203125 338.132812 260.234375 338.132812 265.265625 C 337.703125 265.441406 337.273438 265.613281 336.84375 265.789062 C 323.570312 252.183594 310.765625 238.132812 297.285156 223.726562 C 310.5625 209.625 323.632812 195.742188 337.324219 181.199219 C 339.117188 187.058594 337.199219 192.457031 338.832031 197.898438 C 348.914062 197.898438 358.890625 197.898438 369.882812 197.898438 C 361.117188 181.917969 351.316406 167.289062 342.398438 151.277344 C 356.855469 142.476562 371.011719 133.859375 385.519531 125.03125 C 386.878906 126.921875 388.03125 128.316406 388.957031 129.851562 C 396.417969 142.203125 403.929688 154.523438 411.230469 166.972656 C 418.722656 179.738281 418.984375 192.773438 411.859375 205.808594 C 407.507812 213.769531 403.078125 221.6875 398.566406 229.550781 C 390.925781 242.863281 379.382812 249.550781 364.011719 249.5625 C 357.414062 249.566406 350.816406 249.535156 344.214844 249.558594 C 342.414062 249.5625 340.613281 249.714844 338.132812 249.835938 Z M 411.820312 195.148438 C 396.085938 201.175781 390.421875 202.398438 373.222656 202.421875 C 362.078125 202.4375 350.933594 202.414062 339.792969 202.363281 C 338.015625 202.355469 336.238281 202.09375 334.28125 201.933594 C 334.03125 198.5625 333.8125 195.636719 333.496094 191.378906 C 322.789062 202.765625 313.003906 213.175781 303.019531 223.792969 C 313.238281 234.695312 322.898438 245.003906 333.304688 256.105469 C 333.675781 251.851562 333.9375 248.859375 334.242188 245.402344 C 336.152344 245.402344 337.761719 245.402344 339.375 245.402344 C 347.835938 245.402344 356.296875 245.542969 364.757812 245.363281 C 377.960938 245.082031 388.132812 239.414062 394.730469 227.789062 C 399.414062 219.539062 404.121094 211.296875 408.65625 202.960938 C 409.992188 200.511719 410.78125 197.761719 411.820312 195.148438 Z M 347.953125 152.769531 C 356.863281 167.578125 365.289062 181.519531 373.636719 195.507812 C 374.992188 197.773438 376.765625 198.546875 379.304688 198.253906 C 382.582031 197.871094 385.929688 197.925781 389.164062 197.34375 C 395.867188 196.136719 402.585938 194.820312 408.164062 190.445312 C 411.707031 187.664062 413.800781 184.34375 411.90625 179.714844 C 410.117188 175.351562 408.59375 170.8125 406.253906 166.753906 C 399.964844 155.851562 393.316406 145.15625 386.777344 134.398438 C 386.0625 133.226562 385.148438 132.175781 384.117188 130.789062 C 372.054688 138.125 360.289062 145.273438 347.953125 152.769531 Z M 347.953125 152.769531 " fill-opacity="1" fill-rule="nonzero"/></g></svg>