<svg xmlns="http://www.w3.org/2000/svg" xmlns:xlink="http://www.w3.org/1999/xlink" width="800" zoomAndPan="magnify" viewBox="0 0 600 299.999988" height="400" preserveAspectRatio="xMidYMid meet" version="1.0"><defs><clipPath id="21a0dfe56d"><path d="M 193 17 L 408 17 L 408 275 L 193 275 Z M 193 17 " clip-rule="nonzero"/></clipPath><clipPath id="360bb8aef7"><path d="M 201.828125 14.421875 L 432.640625 48.066406 L 398.023438 285.554688 L 167.210938 251.914062 Z M 201.828125 14.421875 " clip-rule="nonzero"/></clipPath><clipPath id="beae4c814f"><path d="M 201.828125 14.421875 L 432.640625 48.066406 L 398.023438 285.554688 L 167.210938 251.914062 Z M 201.828125 14.421875 " clip-rule="nonzero"/></clipPath></defs><g clip-path="url(#21a0dfe56d)"><g clip-path="url(#360bb8aef7)"><g clip-path="url(#beae4c814f)"><path fill="#333333" d="M 221.464844 85.527344 C 227.035156 84.398438 232.757812 83.238281 237.394531 81.289062 C 237.503906 81.460938 237.609375 81.632812 237.703125 81.804688 C 237.964844 82.25 238.203125 82.691406 238.449219 83.148438 C 238.617188 83.449219 238.769531 83.746094 238.921875 84.054688 C 239.179688 84.539062 239.421875 85.035156 239.648438 85.539062 C 239.789062 85.835938 239.929688 86.132812 240.070312 86.441406 C 240.320312 86.976562 240.558594 87.511719 240.78125 88.054688 C 240.90625 88.347656 241.035156 88.640625 241.164062 88.9375 C 241.375 89.464844 241.578125 89.96875 241.789062 90.496094 C 242.152344 91.429688 242.5 92.359375 242.851562 93.289062 C 243.113281 94.011719 243.367188 94.703125 243.597656 95.367188 C 243.640625 95.519531 243.695312 95.683594 243.753906 95.835938 C 244.457031 97.839844 245.09375 99.785156 245.667969 101.507812 L 246.347656 103.589844 C 247.511719 107.050781 248.0625 110.832031 248.660156 114.84375 C 249.296875 119.1875 249.957031 123.679688 251.460938 128.03125 C 252.804688 131.941406 254.519531 135.839844 256.175781 139.609375 C 261.003906 150.589844 265.570312 160.964844 261.234375 171.261719 C 260.230469 173.636719 259.21875 175.996094 258.203125 178.355469 C 257.292969 180.464844 256.375 182.613281 255.457031 184.777344 C 255.230469 185.335938 254.992188 185.890625 254.753906 186.457031 C 253.808594 188.710938 252.875 190.988281 251.976562 193.269531 C 251.898438 193.429688 251.835938 193.59375 251.773438 193.753906 L 251.480469 193.617188 C 249.679688 192.832031 247.773438 192.121094 245.84375 191.40625 L 246.917969 184.042969 L 239.492188 182.960938 L 238.667969 188.613281 C 237.371094 188.046875 236.09375 187.441406 234.898438 186.738281 C 232.660156 185.429688 232.148438 184.359375 231.132812 182.230469 C 231.101562 182.183594 231.082031 182.140625 231.0625 182.101562 L 231.328125 182.164062 L 241.207031 144.632812 L 234.269531 124.082031 L 227.164062 126.472656 L 233.386719 144.898438 L 225.589844 174.53125 C 224.40625 173.648438 223.234375 173.136719 222.035156 172.621094 C 221.234375 172.269531 220.320312 171.875 219.203125 171.265625 C 218.695312 170.980469 218.164062 170.652344 217.640625 170.289062 C 217.460938 170.15625 217.273438 170.011719 217.09375 169.882812 C 216.738281 169.621094 216.398438 169.359375 216.046875 169.074219 C 215.824219 168.882812 215.605469 168.679688 215.382812 168.492188 C 215.054688 168.207031 214.730469 167.910156 214.398438 167.597656 C 214.167969 167.382812 213.925781 167.148438 213.699219 166.90625 C 213.558594 166.769531 213.425781 166.617188 213.289062 166.480469 C 213.515625 161.855469 213.613281 157.5 213.011719 154.144531 C 211.019531 143.132812 216.714844 129.09375 216.761719 128.957031 L 225.460938 99.613281 L 213.519531 88.910156 L 212.679688 87.476562 C 215.367188 86.765625 218.355469 86.164062 221.464844 85.527344 Z M 277.300781 49.234375 L 278.175781 50.253906 C 278.109375 50.363281 278.050781 50.484375 277.980469 50.59375 C 277.804688 50.910156 277.628906 51.226562 277.449219 51.539062 C 277.148438 52.085938 276.84375 52.632812 276.542969 53.179688 C 276.328125 53.582031 276.109375 53.980469 275.882812 54.382812 C 275.613281 54.867188 275.359375 55.34375 275.109375 55.816406 C 274.914062 56.167969 274.714844 56.535156 274.519531 56.886719 C 274.105469 57.652344 273.707031 58.394531 273.332031 59.101562 C 271.949219 61.65625 270.816406 63.746094 270.140625 64.871094 C 269.03125 66.714844 267.640625 68.796875 266.179688 70.984375 C 265.40625 72.132812 264.617188 73.316406 263.839844 74.515625 C 263.707031 74.71875 263.585938 74.910156 263.453125 75.113281 C 263.164062 75.542969 262.890625 75.988281 262.601562 76.433594 C 262.398438 76.746094 262.210938 77.046875 262.023438 77.347656 C 261.753906 77.765625 261.503906 78.203125 261.246094 78.625 C 261.042969 78.949219 260.851562 79.273438 260.644531 79.597656 C 260.402344 80.011719 260.171875 80.421875 259.941406 80.835938 C 259.730469 81.199219 259.535156 81.550781 259.335938 81.914062 C 259.125 82.289062 258.921875 82.679688 258.722656 83.058594 C 258.507812 83.460938 258.304688 83.875 258.101562 84.28125 C 257.945312 84.613281 257.777344 84.953125 257.625 85.285156 C 257.398438 85.765625 257.195312 86.246094 256.996094 86.71875 C 256.878906 86.988281 256.761719 87.261719 256.65625 87.519531 C 256.617188 87.605469 256.578125 87.707031 256.539062 87.78125 C 256.109375 88.925781 254.933594 89.699219 253.5625 89.757812 C 253.429688 89.765625 253.296875 89.785156 253.164062 89.792969 C 252.277344 89.835938 251.414062 89.917969 250.558594 90.003906 C 250.304688 90.035156 250.042969 90.046875 249.789062 90.074219 C 249.75 90.082031 249.695312 90.089844 249.667969 90.085938 L 249.65625 90.082031 C 249.460938 89.542969 249.226562 88.96875 249.007812 88.402344 C 248.789062 87.84375 248.59375 87.304688 248.359375 86.746094 C 248.167969 86.257812 247.9375 85.765625 247.734375 85.261719 C 247.480469 84.660156 247.214844 84.058594 246.9375 83.441406 C 246.710938 82.921875 246.445312 82.398438 246.195312 81.875 C 245.933594 81.324219 245.671875 80.777344 245.382812 80.234375 C 245.09375 79.695312 244.792969 79.164062 244.492188 78.621094 C 244.269531 78.234375 244.070312 77.824219 243.835938 77.4375 C 244.058594 77.273438 244.28125 77.082031 244.503906 76.90625 C 244.875 76.605469 245.261719 76.292969 245.636719 75.980469 C 246.261719 75.46875 246.878906 74.929688 247.496094 74.390625 C 247.859375 74.0625 248.21875 73.746094 248.582031 73.417969 C 249.261719 72.796875 249.929688 72.171875 250.585938 71.546875 C 250.859375 71.285156 251.148438 71.035156 251.40625 70.773438 C 252.324219 69.894531 253.226562 69.003906 254.128906 68.136719 C 254.953125 67.328125 255.785156 66.503906 256.621094 65.695312 C 259.140625 63.265625 261.71875 60.898438 264.296875 58.953125 C 265.832031 57.796875 267.464844 56.59375 269.152344 55.34375 C 270.730469 54.167969 272.347656 52.960938 273.984375 51.742188 C 274.394531 51.4375 274.792969 51.125 275.191406 50.832031 C 275.902344 50.289062 276.605469 49.765625 277.300781 49.234375 Z M 296.78125 70.707031 C 296.917969 72.734375 297.09375 74.78125 297.265625 76.828125 C 297.519531 79.671875 297.761719 82.527344 297.933594 85.390625 C 298.0625 87.664062 297.949219 90.246094 297.824219 92.984375 L 291.257812 92.027344 L 290.175781 99.453125 L 297.667969 100.546875 C 297.769531 105.597656 298.546875 110.539062 301.4375 114.28125 C 307.386719 121.984375 317.730469 129.359375 326.050781 135.28125 C 327.691406 136.453125 329.273438 137.578125 330.746094 138.644531 L 332.804688 140.164062 C 333.550781 140.71875 334.3125 141.277344 335.070312 141.832031 C 335.117188 141.867188 335.152344 141.898438 335.199219 141.929688 C 335.960938 142.472656 336.734375 143.019531 337.507812 143.566406 C 337.566406 143.613281 337.625 143.648438 337.683594 143.695312 C 338.472656 144.230469 339.261719 144.753906 340.066406 145.277344 C 340.125 145.3125 340.183594 145.359375 340.257812 145.398438 C 341.0625 145.910156 341.882812 146.410156 342.730469 146.886719 C 342.777344 146.917969 342.839844 146.953125 342.886719 146.976562 C 343.75 147.46875 344.613281 147.921875 345.511719 148.339844 C 345.535156 148.359375 345.558594 148.375 345.597656 148.378906 C 347.414062 149.25 349.285156 149.980469 351.257812 150.503906 C 351.308594 150.511719 351.34375 150.53125 351.382812 150.535156 C 352.304688 150.789062 353.25 150.976562 354.199219 151.117188 C 354.355469 151.140625 354.492188 151.171875 354.632812 151.191406 C 355.316406 151.28125 356.003906 151.351562 356.691406 151.402344 C 358.527344 151.5 360.242188 151.261719 361.902344 150.941406 C 362.457031 150.824219 363.011719 150.707031 363.554688 150.589844 C 365.640625 150.148438 367.667969 149.722656 369.304688 150.023438 C 369.777344 150.105469 370.246094 150.226562 370.699219 150.371094 C 370.695312 150.386719 370.695312 150.398438 370.695312 150.398438 C 370.515625 152.15625 370.066406 153.179688 370.066406 153.179688 L 369.25 154.820312 L 370.03125 156.46875 C 372.566406 161.773438 375.214844 167.628906 377.308594 172.632812 C 375.238281 171.871094 371.875 169.847656 369.71875 168.523438 C 367.683594 167.265625 365.769531 166.09375 364.113281 165.304688 C 362.429688 164.507812 360.683594 163.4375 358.839844 162.304688 C 355.363281 160.144531 351.761719 157.925781 347.75 157.09375 C 342.332031 155.933594 337.867188 157.828125 333.914062 159.484375 C 331.105469 160.664062 328.6875 161.675781 326.304688 161.539062 C 322.9375 161.335938 317.636719 157.992188 315.347656 155.230469 L 312.949219 152.335938 L 307.175781 157.109375 L 309.5625 160.003906 C 312.953125 164.105469 320.207031 168.71875 325.898438 169.023438 C 330 169.242188 333.617188 167.734375 336.816406 166.390625 C 340.171875 164.988281 343.089844 163.785156 346.222656 164.425781 C 348.949219 164.996094 351.835938 166.78125 354.90625 168.671875 C 356.84375 169.875 358.84375 171.109375 360.90625 172.078125 C 362.195312 172.6875 363.953125 173.769531 365.796875 174.90625 C 369.757812 177.332031 373.84375 179.84375 377.3125 180.347656 C 377.621094 180.394531 377.902344 180.421875 378.207031 180.425781 L 380.410156 180.523438 C 380.972656 182.15625 381.339844 183.402344 381.386719 184.066406 C 381.042969 187.058594 382.746094 191.496094 391.59375 203.804688 C 391.414062 203.964844 391.242188 204.136719 391.0625 204.292969 C 390.144531 205.089844 389.253906 205.90625 388.382812 206.738281 C 388.082031 207.019531 387.777344 207.292969 387.488281 207.578125 C 386.511719 208.511719 385.546875 209.445312 384.644531 210.339844 C 384.539062 210.441406 384.429688 210.542969 384.320312 210.660156 C 383.160156 209.820312 382.007812 208.707031 380.796875 207.558594 C 379.316406 206.125 377.785156 204.652344 375.972656 203.40625 C 370.164062 199.398438 363.910156 198.996094 357.464844 198.925781 C 355.214844 198.898438 352.929688 198.996094 350.667969 199.101562 C 346.523438 199.269531 342.589844 199.445312 339.359375 198.816406 C 334.152344 197.808594 330.347656 194.945312 325.945312 191.640625 L 321.828125 188.558594 L 317.34375 194.570312 L 321.4375 197.636719 C 326.15625 201.171875 331.03125 204.832031 337.933594 206.179688 C 342.085938 206.957031 346.613281 206.777344 350.996094 206.589844 C 353.121094 206.492188 355.273438 206.398438 357.382812 206.417969 C 362.808594 206.472656 367.636719 206.757812 371.714844 209.570312 C 373.023438 210.480469 374.292969 211.691406 375.613281 212.960938 C 376.640625 213.933594 377.675781 214.925781 378.792969 215.835938 C 377.046875 217.367188 375.316406 218.976562 373.582031 220.613281 C 370.296875 223.703125 366.90625 226.898438 363.394531 229.273438 C 360.484375 231.25 356.945312 231.402344 352.851562 231.566406 C 350.394531 231.683594 347.871094 231.800781 345.316406 232.308594 L 340.882812 226.464844 L 334.917969 231 L 337.980469 235.03125 C 337.925781 235.046875 337.878906 235.082031 337.835938 235.101562 C 337.511719 235.277344 337.195312 235.453125 336.882812 235.628906 C 336.652344 235.769531 336.449219 235.894531 336.230469 236.035156 C 335.941406 236.214844 335.644531 236.382812 335.367188 236.566406 C 335.148438 236.703125 334.945312 236.855469 334.726562 237.007812 C 334.464844 237.179688 334.199219 237.367188 333.9375 237.550781 C 333.71875 237.703125 333.511719 237.855469 333.304688 238.007812 C 333.054688 238.195312 332.804688 238.382812 332.558594 238.554688 C 332.347656 238.722656 332.144531 238.875 331.9375 239.03125 C 331.699219 239.230469 331.449219 239.417969 331.195312 239.617188 C 330.988281 239.785156 330.765625 239.949219 330.558594 240.113281 C 330.4375 240.214844 330.320312 240.304688 330.214844 240.394531 C 330.203125 240.40625 330.1875 240.414062 330.171875 240.425781 C 328.292969 239.824219 326.390625 239.285156 324.492188 238.785156 L 324.472656 238.742188 L 323.917969 235.710938 C 323.832031 235.222656 321.683594 223.679688 318.945312 215.550781 L 317.742188 211.992188 L 310.636719 214.390625 L 311.839844 217.941406 C 314.230469 225.019531 316.226562 235.363281 316.503906 236.871094 C 316.226562 236.804688 315.910156 236.734375 315.628906 236.667969 C 314.15625 236.347656 312.722656 236.097656 311.355469 235.847656 C 306.210938 234.9375 302.808594 234.324219 299.96875 230.605469 C 295.472656 224.699219 290.300781 217.6875 285.039062 210.320312 C 282.789062 207.195312 277.660156 204.941406 271.183594 202.304688 C 270.015625 201.832031 268.914062 201.382812 268.015625 200.988281 C 264.984375 199.640625 261.828125 198.238281 258.636719 196.8125 C 258.636719 196.8125 258.625 196.8125 258.625 196.8125 C 258.703125 196.640625 258.765625 196.464844 258.832031 196.292969 C 259.746094 193.984375 260.699219 191.667969 261.664062 189.367188 C 261.863281 188.898438 262.050781 188.441406 262.25 187.972656 C 263.191406 185.734375 264.144531 183.511719 265.09375 181.3125 C 266.109375 178.941406 267.128906 176.558594 268.132812 174.171875 C 273.003906 162.613281 269.511719 151.75 265.058594 141.234375 L 268.488281 141.734375 L 269.570312 134.320312 L 261.539062 133.148438 C 260.449219 130.628906 259.40625 128.074219 258.546875 125.585938 C 257.277344 121.886719 256.6875 117.929688 256.074219 113.746094 C 255.863281 112.3125 255.628906 110.859375 255.382812 109.394531 C 254.917969 106.648438 254.347656 103.890625 253.464844 101.214844 L 252.78125 99.160156 C 252.589844 98.59375 252.402344 97.988281 252.199219 97.382812 C 252.191406 97.367188 252.191406 97.367188 252.191406 97.367188 C 252.363281 97.339844 252.5625 97.34375 252.734375 97.328125 C 252.917969 97.316406 253.089844 97.300781 253.277344 97.289062 C 253.488281 97.28125 253.6875 97.257812 253.898438 97.25 C 257.96875 97.066406 261.527344 94.699219 263.210938 91.179688 C 263.230469 91.207031 263.253906 91.226562 263.277344 91.253906 C 268.757812 97.144531 275.066406 110.476562 280.191406 121.316406 C 283.234375 127.730469 286.101562 133.804688 288.511719 137.777344 C 291.214844 142.210938 289.699219 145.757812 286.574219 152.152344 C 285.625 154.085938 284.636719 156.09375 283.792969 158.28125 L 283.273438 159.582031 C 281.910156 162.992188 280.351562 166.859375 280.8125 170.273438 C 281.097656 172.347656 282.015625 174.160156 282.902344 175.917969 C 283.585938 177.261719 284.289062 178.652344 284.410156 179.695312 C 284.558594 181.117188 284.308594 182.644531 284.058594 184.273438 C 283.621094 187.003906 283.117188 190.105469 284.363281 193.53125 C 285.902344 197.730469 290.898438 203.050781 292.984375 205.140625 L 295.613281 207.804688 L 300.9375 202.519531 L 298.304688 199.867188 C 294.90625 196.445312 292.070312 192.777344 291.40625 190.949219 C 290.835938 189.367188 291.097656 187.648438 291.457031 185.457031 C 291.582031 184.6875 291.703125 183.851562 291.789062 183 L 297.019531 183.761719 L 298.097656 176.347656 L 290.890625 175.296875 C 290.496094 174.320312 290.027344 173.398438 289.585938 172.535156 C 288.988281 171.332031 288.355469 170.085938 288.238281 169.269531 C 288.042969 167.824219 289.363281 164.539062 290.230469 162.367188 L 290.769531 161.003906 C 291.503906 159.117188 292.421875 157.242188 293.300781 155.441406 C 296.378906 149.160156 299.859375 142.027344 294.921875 133.882812 C 292.707031 130.238281 289.917969 124.347656 286.972656 118.105469 C 280.972656 105.433594 274.179688 91.074219 267.441406 84.816406 L 266.703125 84.128906 L 266.691406 84.117188 C 267.023438 83.558594 267.355469 82.992188 267.699219 82.425781 C 267.769531 82.304688 267.851562 82.183594 267.925781 82.050781 C 268.320312 81.414062 268.726562 80.777344 269.136719 80.140625 C 269.273438 79.925781 269.410156 79.695312 269.546875 79.480469 C 269.882812 78.964844 270.222656 78.449219 270.558594 77.945312 C 270.746094 77.648438 270.945312 77.359375 271.132812 77.058594 C 271.214844 76.953125 271.28125 76.84375 271.351562 76.738281 C 271.71875 76.199219 272.070312 75.660156 272.421875 75.148438 C 273.027344 74.226562 273.601562 73.351562 274.171875 72.492188 C 275.035156 71.171875 275.863281 69.902344 276.574219 68.71875 C 277.28125 67.550781 278.46875 65.347656 279.921875 62.660156 C 280.410156 61.761719 280.929688 60.800781 281.453125 59.8125 C 281.558594 59.644531 281.648438 59.460938 281.753906 59.28125 C 282.238281 58.40625 282.722656 57.492188 283.238281 56.582031 C 283.277344 56.496094 283.328125 56.414062 283.363281 56.339844 L 291.78125 66.199219 Z M 350.101562 115.757812 C 353.496094 121.632812 357.625 127.601562 362.414062 132.394531 C 363.777344 133.761719 365.046875 134.929688 366.191406 135.988281 C 369.480469 139 371.078125 140.480469 371.355469 142.792969 C 371.113281 142.742188 370.871094 142.695312 370.628906 142.648438 C 367.496094 142.085938 364.558594 142.707031 361.984375 143.261719 C 360.222656 143.648438 358.558594 143.996094 357.125 143.917969 C 349.945312 143.488281 343.484375 138.742188 337.265625 134.136719 L 335.15625 132.582031 C 333.675781 131.5 332.070312 130.359375 330.40625 129.171875 C 322.488281 123.53125 312.632812 116.519531 307.355469 109.6875 C 304.742188 106.300781 305.023438 99.78125 305.3125 93.472656 C 305.4375 90.617188 305.570312 87.65625 305.410156 84.957031 C 305.289062 82.8125 305.117188 80.664062 304.933594 78.507812 C 304.917969 78.335938 304.90625 78.152344 304.894531 77.980469 L 314.015625 86.144531 L 339.851562 93.730469 C 340.8125 96.390625 342.816406 101.550781 345.746094 107.554688 L 342.984375 107.152344 L 341.90625 114.566406 Z M 265.242188 35.101562 L 272.414062 43.511719 C 271.839844 43.949219 271.273438 44.394531 270.699219 44.835938 C 270.214844 45.195312 269.726562 45.570312 269.238281 45.933594 C 267.707031 47.089844 266.164062 48.214844 264.691406 49.324219 C 262.984375 50.585938 261.335938 51.804688 259.792969 52.957031 C 258.332031 54.054688 256.925781 55.253906 255.535156 56.496094 L 250.988281 50.503906 L 245.015625 55.039062 L 250.035156 61.648438 C 249.652344 62.027344 249.253906 62.402344 248.871094 62.78125 C 247.9375 63.707031 247.003906 64.621094 246.074219 65.507812 C 245.953125 65.621094 245.832031 65.734375 245.695312 65.847656 C 243.011719 68.40625 240.371094 70.777344 237.601562 72.683594 C 237.515625 72.738281 237.4375 72.804688 237.363281 72.859375 C 237.152344 72.960938 236.941406 73.074219 236.738281 73.1875 C 236.738281 73.1875 236.738281 73.203125 236.726562 73.199219 L 236.710938 73.199219 L 235.5625 73.882812 C 232.511719 75.367188 228.328125 76.425781 223.953125 77.359375 L 224.882812 71 L 217.453125 69.917969 L 216.132812 78.976562 C 215.605469 79.097656 215.078125 79.203125 214.5625 79.324219 C 214.359375 79.359375 214.15625 79.410156 213.953125 79.460938 C 213.273438 79.609375 212.605469 79.773438 211.9375 79.941406 C 211.191406 80.121094 210.453125 80.328125 209.726562 80.535156 C 209.453125 80.613281 209.167969 80.675781 208.894531 80.753906 C 208.851562 80.777344 208.8125 80.78125 208.769531 80.789062 L 202.441406 69.933594 L 226.632812 26.039062 Z M 317.160156 266.242188 C 315.707031 266.03125 313.777344 262.507812 312.234375 259.6875 C 309.5 254.683594 305.929688 248.125 299.105469 247.128906 C 297.769531 246.9375 296.308594 246.960938 294.722656 247.238281 C 288.714844 248.292969 278.136719 242.105469 270.144531 236.074219 L 271.140625 229.238281 L 262.777344 228.015625 L 254.953125 213.53125 L 253.566406 213.066406 C 253.378906 213 234.4375 206.460938 219.601562 200.386719 C 212.839844 197.632812 212.359375 186.628906 212.773438 176.035156 C 212.917969 176.121094 213.050781 176.207031 213.179688 176.304688 C 213.324219 176.40625 213.453125 176.503906 213.597656 176.589844 C 214.253906 177.039062 214.914062 177.464844 215.582031 177.824219 C 216.941406 178.585938 218.078125 179.078125 219.066406 179.5 C 220.953125 180.3125 221.535156 180.566406 222.714844 182.378906 C 223.410156 183.464844 223.871094 184.4375 224.363281 185.46875 C 225.597656 188.0625 226.886719 190.742188 231.121094 193.210938 C 234.746094 195.339844 238.625 196.742188 242.371094 198.117188 C 244.464844 198.882812 246.507812 199.625 248.433594 200.46875 L 251.785156 201.96875 L 252.054688 202.085938 L 254.644531 203.238281 C 256.503906 204.074219 258.363281 204.898438 260.1875 205.714844 C 261.8125 206.4375 263.417969 207.140625 264.980469 207.84375 C 265.957031 208.273438 267.121094 208.746094 268.359375 209.253906 C 271.417969 210.488281 277.785156 213.082031 278.941406 214.691406 C 284.25 222.105469 289.46875 229.179688 294.003906 235.140625 C 298.617188 241.207031 304.425781 242.238281 310.042969 243.226562 C 311.320312 243.453125 312.640625 243.683594 314.011719 243.988281 C 315.292969 244.28125 316.617188 244.578125 317.972656 244.894531 C 319.699219 245.289062 321.371094 245.71875 322.988281 246.136719 C 323.214844 246.210938 323.445312 246.257812 323.667969 246.328125 C 325.121094 246.710938 326.503906 247.136719 327.871094 247.570312 C 328.472656 247.761719 329.074219 247.957031 329.675781 248.160156 C 330.136719 248.320312 330.625 248.472656 331.074219 248.640625 C 333.6875 249.613281 336.097656 250.726562 338.335938 252.035156 C 338.566406 252.160156 338.796875 252.300781 339.011719 252.421875 C 339.492188 252.730469 339.976562 253.023438 340.429688 253.335938 C 341.132812 253.820312 341.832031 254.316406 342.488281 254.859375 C 342.582031 254.9375 342.679688 254.992188 342.761719 255.066406 L 342.746094 255.078125 L 339.070312 259.148438 C 338.726562 259.519531 330.558594 268.195312 317.160156 266.242188 Z M 396.804688 223.226562 L 378.359375 236.898438 L 373.847656 243.355469 L 349.457031 247.671875 L 347.796875 249.503906 C 347.644531 249.375 347.476562 249.261719 347.328125 249.132812 C 347.03125 248.90625 346.75 248.683594 346.464844 248.46875 C 346.078125 248.164062 345.6875 247.871094 345.28125 247.589844 C 344.9375 247.339844 344.578125 247.105469 344.21875 246.871094 C 343.886719 246.636719 343.539062 246.402344 343.1875 246.195312 C 341.636719 245.21875 340.03125 244.355469 338.386719 243.578125 C 338.488281 243.515625 338.574219 243.449219 338.664062 243.382812 C 338.953125 243.1875 339.246094 242.996094 339.535156 242.800781 C 339.710938 242.683594 339.898438 242.566406 340.085938 242.449219 C 340.359375 242.277344 340.648438 242.109375 340.933594 241.957031 C 341.117188 241.851562 341.304688 241.734375 341.503906 241.632812 C 341.816406 241.46875 342.144531 241.304688 342.46875 241.140625 C 342.507812 241.136719 342.539062 241.113281 342.582031 241.09375 L 342.679688 241.226562 L 343.269531 240.785156 C 343.6875 240.613281 344.109375 240.421875 344.566406 240.253906 C 347.167969 239.320312 350.085938 239.195312 353.164062 239.066406 C 357.746094 238.867188 362.9375 238.640625 367.59375 235.488281 C 371.613281 232.765625 375.21875 229.371094 378.714844 226.074219 C 380.554688 224.347656 382.382812 222.621094 384.238281 221.039062 C 386.023438 219.503906 387.910156 217.652344 389.902344 215.683594 C 390.773438 214.828125 391.644531 213.984375 392.515625 213.140625 C 392.789062 212.878906 393.050781 212.625 393.324219 212.363281 C 394.054688 211.683594 394.78125 211.003906 395.519531 210.363281 C 395.699219 210.203125 395.867188 210.03125 396.046875 209.886719 C 396.828125 210.933594 397.585938 211.9375 398.308594 212.90625 C 402.363281 218.316406 398.164062 222.191406 396.804688 223.226562 Z M 404.308594 208.402344 C 402.890625 206.515625 401.328125 204.4375 399.742188 202.277344 C 390.335938 189.476562 388.972656 185.789062 388.84375 184.773438 C 389.222656 180.535156 383.046875 166.394531 377.472656 154.652344 C 377.890625 153.246094 378.308594 151.089844 378.238281 148.414062 C 380.433594 138.945312 376.390625 135.179688 371.261719 130.46875 C 370.1875 129.472656 368.996094 128.382812 367.710938 127.105469 C 354.554688 113.929688 346.375 89.734375 346.304688 89.5 L 345.683594 87.636719 L 317.753906 79.421875 L 304.054688 67.175781 L 304.054688 67.164062 L 298.933594 62.585938 L 297.320312 61.140625 L 287.300781 49.40625 L 287.304688 49.394531 L 283.210938 44.613281 L 269.347656 28.367188 L 222.808594 17.4375 L 193.816406 70.042969 L 204.085938 87.640625 L 207.34375 93.207031 L 216.933594 102.03125 L 209.761719 126.296875 C 208.996094 128.234375 203.363281 142.910156 205.640625 155.46875 C 206.144531 158.3125 205.988281 162.632812 205.742188 167.203125 L 205.601562 169.597656 C 204.785156 184.03125 203.753906 202 216.769531 207.324219 C 229.460938 212.519531 245.074219 218.035156 249.742188 219.660156 L 258.816406 236.457031 L 259.304688 236.894531 C 261.613281 238.960938 282.269531 257.050781 296.019531 254.621094 C 300.074219 253.898438 302.148438 256.863281 305.660156 263.28125 C 308.238281 268.011719 310.914062 272.902344 316.078125 273.65625 C 333.527344 276.199219 344.167969 264.683594 344.617188 264.195312 L 348.058594 260.394531 L 348.46875 259.941406 L 353.097656 254.816406 L 353.300781 254.597656 L 378.207031 250.183594 L 383.804688 242.195312 L 401.269531 229.257812 C 401.800781 228.847656 406.53125 225.195312 407.40625 219.207031 C 407.945312 215.507812 406.898438 211.863281 404.308594 208.402344 " fill-opacity="1" fill-rule="nonzero"/></g></g></g></svg>