<svg xmlns="http://www.w3.org/2000/svg" xmlns:xlink="http://www.w3.org/1999/xlink" width="800" zoomAndPan="magnify" viewBox="0 0 600 299.999988" height="400" preserveAspectRatio="xMidYMid meet" version="1.0"><defs><clipPath id="3d866d5368"><path d="M 209 30 L 391 30 L 391 270 L 209 270 Z M 209 30 " clip-rule="nonzero"/></clipPath><clipPath id="d412c1d40d"><path d="M 293.722656 17.921875 L 398.855469 61.996094 L 306.644531 281.949219 L 201.507812 237.871094 Z M 293.722656 17.921875 " clip-rule="nonzero"/></clipPath><clipPath id="e514708c25"><path d="M 293.722656 17.921875 L 398.855469 61.996094 L 306.644531 281.949219 L 201.507812 237.871094 Z M 293.722656 17.921875 " clip-rule="nonzero"/></clipPath><clipPath id="1d8b80bece"><path d="M 292 84 L 305 84 L 305 97 L 292 97 Z M 292 84 " clip-rule="nonzero"/></clipPath><clipPath id="94a84742e5"><path d="M 293.722656 17.921875 L 398.855469 61.996094 L 306.644531 281.949219 L 201.507812 237.871094 Z M 293.722656 17.921875 " clip-rule="nonzero"/></clipPath><clipPath id="77b91ee85f"><path d="M 293.722656 17.921875 L 398.855469 61.996094 L 306.644531 281.949219 L 201.507812 237.871094 Z M 293.722656 17.921875 " clip-rule="nonzero"/></clipPath><clipPath id="0fdcd93fa3"><path d="M 269 108 L 282 108 L 282 121 L 269 121 Z M 269 108 " clip-rule="nonzero"/></clipPath><clipPath id="1399610a18"><path d="M 293.722656 17.921875 L 398.855469 61.996094 L 306.644531 281.949219 L 201.507812 237.871094 Z M 293.722656 17.921875 " clip-rule="nonzero"/></clipPath><clipPath id="365f9b73ff"><path d="M 293.722656 17.921875 L 398.855469 61.996094 L 306.644531 281.949219 L 201.507812 237.871094 Z M 293.722656 17.921875 " clip-rule="nonzero"/></clipPath><clipPath id="18137fd423"><path d="M 248 141 L 261 141 L 261 154 L 248 154 Z M 248 141 " clip-rule="nonzero"/></clipPath><clipPath id="64c592691e"><path d="M 293.722656 17.921875 L 398.855469 61.996094 L 306.644531 281.949219 L 201.507812 237.871094 Z M 293.722656 17.921875 " clip-rule="nonzero"/></clipPath><clipPath id="81b431091d"><path d="M 293.722656 17.921875 L 398.855469 61.996094 L 306.644531 281.949219 L 201.507812 237.871094 Z M 293.722656 17.921875 " clip-rule="nonzero"/></clipPath><clipPath id="e1e3b49310"><path d="M 265 183 L 282 183 L 282 200 L 265 200 Z M 265 183 " clip-rule="nonzero"/></clipPath><clipPath id="47e13a2f0f"><path d="M 293.722656 17.921875 L 398.855469 61.996094 L 306.644531 281.949219 L 201.507812 237.871094 Z M 293.722656 17.921875 " clip-rule="nonzero"/></clipPath><clipPath id="c9b248c4ae"><path d="M 293.722656 17.921875 L 398.855469 61.996094 L 306.644531 281.949219 L 201.507812 237.871094 Z M 293.722656 17.921875 " clip-rule="nonzero"/></clipPath><clipPath id="c8ef6ca572"><path d="M 247 203 L 260 203 L 260 215 L 247 215 Z M 247 203 " clip-rule="nonzero"/></clipPath><clipPath id="a577acae45"><path d="M 293.722656 17.921875 L 398.855469 61.996094 L 306.644531 281.949219 L 201.507812 237.871094 Z M 293.722656 17.921875 " clip-rule="nonzero"/></clipPath><clipPath id="310d936695"><path d="M 293.722656 17.921875 L 398.855469 61.996094 L 306.644531 281.949219 L 201.507812 237.871094 Z M 293.722656 17.921875 " clip-rule="nonzero"/></clipPath><clipPath id="9ebdc18640"><path d="M 295 218 L 308 218 L 308 231 L 295 231 Z M 295 218 " clip-rule="nonzero"/></clipPath><clipPath id="03082fbc23"><path d="M 293.722656 17.921875 L 398.855469 61.996094 L 306.644531 281.949219 L 201.507812 237.871094 Z M 293.722656 17.921875 " clip-rule="nonzero"/></clipPath><clipPath id="e9749dc46b"><path d="M 293.722656 17.921875 L 398.855469 61.996094 L 306.644531 281.949219 L 201.507812 237.871094 Z M 293.722656 17.921875 " clip-rule="nonzero"/></clipPath><clipPath id="bfb4f60866"><path d="M 322 181 L 335 181 L 335 194 L 322 194 Z M 322 181 " clip-rule="nonzero"/></clipPath><clipPath id="9570e33925"><path d="M 293.722656 17.921875 L 398.855469 61.996094 L 306.644531 281.949219 L 201.507812 237.871094 Z M 293.722656 17.921875 " clip-rule="nonzero"/></clipPath><clipPath id="ad67d0d143"><path d="M 293.722656 17.921875 L 398.855469 61.996094 L 306.644531 281.949219 L 201.507812 237.871094 Z M 293.722656 17.921875 " clip-rule="nonzero"/></clipPath><clipPath id="569c80598a"><path d="M 313 143 L 330 143 L 330 160 L 313 160 Z M 313 143 " clip-rule="nonzero"/></clipPath><clipPath id="40356430fb"><path d="M 293.722656 17.921875 L 398.855469 61.996094 L 306.644531 281.949219 L 201.507812 237.871094 Z M 293.722656 17.921875 " clip-rule="nonzero"/></clipPath><clipPath id="91316485e3"><path d="M 293.722656 17.921875 L 398.855469 61.996094 L 306.644531 281.949219 L 201.507812 237.871094 Z M 293.722656 17.921875 " clip-rule="nonzero"/></clipPath><clipPath id="1d00b21df2"><path d="M 271 154 L 282 154 L 282 175 L 271 175 Z M 271 154 " clip-rule="nonzero"/></clipPath><clipPath id="0eb643cd31"><path d="M 293.722656 17.921875 L 398.855469 61.996094 L 306.644531 281.949219 L 201.507812 237.871094 Z M 293.722656 17.921875 " clip-rule="nonzero"/></clipPath><clipPath id="9c94a55e43"><path d="M 293.722656 17.921875 L 398.855469 61.996094 L 306.644531 281.949219 L 201.507812 237.871094 Z M 293.722656 17.921875 " clip-rule="nonzero"/></clipPath></defs><g clip-path="url(#3d866d5368)"><g clip-path="url(#d412c1d40d)"><g clip-path="url(#e514708c25)"><path fill="#333333" d="M 380.238281 60.808594 C 372 53.089844 359.894531 45.664062 346.15625 39.902344 C 332.414062 34.140625 318.632812 30.714844 307.351562 30.25 C 295.4375 29.761719 287.535156 32.695312 285.097656 38.515625 L 210.046875 217.523438 C 207.796875 222.890625 210.4375 229.675781 217.675781 237.140625 C 217.679688 237.144531 217.679688 237.144531 217.679688 237.144531 C 217.683594 237.148438 217.6875 237.152344 217.6875 237.152344 C 219.460938 238.984375 221.496094 240.828125 223.730469 242.640625 L 223.726562 242.644531 C 231.765625 249.167969 242.179688 255.203125 253.839844 260.09375 C 267.582031 265.851562 281.363281 269.28125 292.644531 269.742188 C 304.558594 270.230469 312.460938 267.296875 314.898438 261.480469 L 389.949219 82.472656 C 392.386719 76.65625 388.9375 68.964844 380.238281 60.808594 Z M 344.691406 43.398438 C 373.960938 55.667969 389.914062 72.75 386.453125 81.007812 C 385.246094 83.886719 381.554688 85.855469 376 86.625 L 374.425781 79.710938 C 374.191406 78.691406 373.175781 78.050781 372.15625 78.285156 C 371.136719 78.515625 370.496094 79.53125 370.730469 80.550781 L 372.1875 86.953125 C 368.25 87.113281 363.765625 86.796875 358.800781 86 C 356.472656 85.625 354.019531 85.136719 351.507812 84.550781 C 344.605469 82.921875 337.488281 80.578125 330.355469 77.589844 C 325.730469 75.648438 321.28125 73.507812 317.097656 71.214844 C 318.535156 68.523438 320.226562 65.960938 322.152344 63.574219 C 322.15625 63.570312 322.160156 63.5625 322.164062 63.558594 C 322.183594 63.539062 322.214844 63.496094 322.226562 63.484375 C 322.882812 62.667969 322.757812 61.464844 321.941406 60.8125 C 321.125 60.160156 319.941406 60.277344 319.285156 61.09375 C 319.253906 61.132812 319.222656 61.171875 319.191406 61.210938 C 317.140625 63.75 315.335938 66.480469 313.800781 69.34375 C 296.253906 59.035156 285.714844 46.839844 288.589844 39.980469 C 292.050781 31.722656 315.421875 31.125 344.691406 43.398438 Z M 366.589844 128.390625 C 364.214844 129.773438 361.710938 130.917969 359.121094 131.765625 C 356.007812 132.78125 352.78125 133.402344 349.53125 133.601562 C 348.488281 133.667969 347.691406 134.566406 347.757812 135.609375 C 347.804688 136.355469 348.273438 136.972656 348.917969 137.242188 C 349.175781 137.351562 349.464844 137.402344 349.765625 137.382812 C 353.335938 137.164062 356.878906 136.484375 360.296875 135.367188 C 361.660156 134.921875 363 134.402344 364.3125 133.816406 L 315.851562 249.40625 C 313.492188 250.136719 311.054688 250.59375 308.589844 250.757812 C 305.886719 250.941406 303.15625 250.773438 300.476562 250.257812 C 299.445312 250.0625 298.453125 250.734375 298.257812 251.761719 C 298.085938 252.65625 298.574219 253.527344 299.382812 253.867188 C 299.5 253.917969 299.628906 253.957031 299.757812 253.980469 C 302.761719 254.558594 305.820312 254.746094 308.847656 254.539062 C 310.582031 254.425781 312.308594 254.175781 314.007812 253.804688 L 311.40625 260.015625 C 307.945312 268.273438 284.574219 268.867188 255.304688 256.597656 C 244.5 252.066406 234.828125 246.546875 227.226562 240.582031 L 231.53125 230.308594 C 231.9375 229.34375 231.480469 228.234375 230.515625 227.828125 C 229.550781 227.425781 228.441406 227.878906 228.035156 228.84375 L 224.171875 238.058594 C 223.148438 237.167969 222.183594 236.273438 221.277344 235.382812 L 227.320312 220.96875 C 227.726562 220.003906 227.273438 218.894531 226.304688 218.488281 C 225.339844 218.082031 224.230469 218.539062 223.828125 219.503906 L 218.4375 232.355469 C 213.871094 227.035156 212.136719 222.347656 213.542969 218.988281 L 231.523438 176.097656 C 232.507812 178.019531 233.636719 179.851562 234.914062 181.582031 C 236.488281 183.710938 238.285156 185.6875 240.257812 187.453125 C 240.417969 187.601562 240.597656 187.710938 240.789062 187.792969 C 241.511719 188.09375 242.378906 187.925781 242.933594 187.308594 C 243.632812 186.53125 243.566406 185.332031 242.785156 184.632812 C 241.007812 183.035156 239.382812 181.253906 237.960938 179.328125 C 236.152344 176.882812 234.664062 174.195312 233.519531 171.339844 L 270.96875 82.011719 C 271.769531 83.859375 272.648438 85.667969 273.621094 87.417969 C 274.953125 89.824219 276.46875 92.171875 278.121094 94.394531 C 278.332031 94.679688 278.605469 94.886719 278.90625 95.011719 C 279.503906 95.261719 280.214844 95.199219 280.773438 94.785156 C 281.613281 94.164062 281.789062 92.976562 281.164062 92.136719 C 279.609375 90.042969 278.1875 87.839844 276.933594 85.582031 C 275.417969 82.847656 274.125 79.96875 273.066406 77.011719 L 285.398438 47.59375 C 288.441406 55.398438 297.890625 64.453125 312.125 72.753906 C 310.78125 75.757812 309.714844 78.894531 308.960938 82.078125 C 308.933594 82.1875 308.90625 82.300781 308.882812 82.410156 L 308.828125 82.628906 C 308.605469 83.550781 309.089844 84.472656 309.933594 84.828125 C 310.027344 84.867188 310.121094 84.898438 310.21875 84.921875 C 311.234375 85.171875 312.261719 84.546875 312.511719 83.53125 L 312.644531 82.976562 C 313.320312 80.117188 314.261719 77.320312 315.441406 74.628906 C 319.691406 76.953125 324.203125 79.121094 328.890625 81.082031 C 335.472656 83.84375 342.046875 86.0625 348.472656 87.699219 L 338.691406 111.03125 C 338.285156 111.996094 338.738281 113.105469 339.707031 113.511719 C 340.671875 113.914062 341.78125 113.460938 342.183594 112.496094 L 352.207031 88.589844 C 353.4375 88.859375 354.644531 89.105469 355.832031 89.328125 L 352.519531 97.234375 C 352.113281 98.199219 352.566406 99.3125 353.53125 99.714844 C 354.496094 100.121094 355.609375 99.664062 356.011719 98.699219 L 359.675781 89.960938 C 365.265625 90.769531 370.300781 90.988281 374.640625 90.597656 C 374.648438 90.597656 374.652344 90.597656 374.660156 90.597656 C 374.671875 90.59375 374.6875 90.59375 374.703125 90.59375 C 378.054688 90.289062 380.917969 89.617188 383.265625 88.617188 Z M 366.589844 128.390625 " fill-opacity="1" fill-rule="nonzero"/></g></g></g><g clip-path="url(#1d8b80bece)"><g clip-path="url(#94a84742e5)"><g clip-path="url(#77b91ee85f)"><path fill="#333333" d="M 303.914062 92.925781 C 305.1875 89.886719 303.753906 86.378906 300.71875 85.105469 C 297.6875 83.832031 294.183594 85.273438 292.90625 88.3125 C 291.632812 91.355469 293.0625 94.863281 296.09375 96.136719 C 299.128906 97.410156 302.636719 95.96875 303.914062 92.925781 Z M 303.914062 92.925781 " fill-opacity="1" fill-rule="nonzero"/></g></g></g><g clip-path="url(#0fdcd93fa3)"><g clip-path="url(#1399610a18)"><g clip-path="url(#365f9b73ff)"><path fill="#333333" d="M 277.613281 108.644531 C 274.578125 107.375 271.070312 108.8125 269.792969 111.855469 C 268.519531 114.898438 269.949219 118.410156 272.984375 119.683594 C 276.019531 120.953125 279.523438 119.511719 280.800781 116.46875 C 282.074219 113.429688 280.644531 109.917969 277.613281 108.644531 Z M 277.613281 108.644531 " fill-opacity="1" fill-rule="nonzero"/></g></g></g><g clip-path="url(#18137fd423)"><g clip-path="url(#64c592691e)"><g clip-path="url(#81b431091d)"><path fill="#333333" d="M 256.96875 142.089844 C 253.9375 140.816406 250.433594 142.257812 249.15625 145.300781 C 247.882812 148.339844 249.3125 151.847656 252.347656 153.121094 C 255.378906 154.390625 258.882812 152.953125 260.15625 149.910156 C 261.433594 146.871094 260.003906 143.359375 256.96875 142.089844 Z M 256.96875 142.089844 " fill-opacity="1" fill-rule="nonzero"/></g></g></g><g clip-path="url(#e1e3b49310)"><g clip-path="url(#47e13a2f0f)"><g clip-path="url(#c9b248c4ae)"><path fill="#333333" d="M 277.027344 183.730469 C 272.960938 182.027344 268.257812 183.957031 266.546875 188.039062 C 264.835938 192.121094 266.753906 196.828125 270.820312 198.53125 C 274.890625 200.238281 279.589844 198.304688 281.300781 194.226562 C 283.011719 190.144531 281.09375 185.4375 277.027344 183.730469 Z M 277.027344 183.730469 " fill-opacity="1" fill-rule="nonzero"/></g></g></g><g clip-path="url(#c8ef6ca572)"><g clip-path="url(#a577acae45)"><g clip-path="url(#310d936695)"><path fill="#333333" d="M 255.496094 203.507812 C 252.460938 202.234375 248.957031 203.671875 247.679688 206.710938 C 246.40625 209.753906 247.835938 213.265625 250.871094 214.539062 C 253.90625 215.808594 257.410156 214.367188 258.6875 211.328125 C 259.960938 208.285156 258.53125 204.777344 255.496094 203.507812 Z M 255.496094 203.507812 " fill-opacity="1" fill-rule="nonzero"/></g></g></g><g clip-path="url(#9ebdc18640)"><g clip-path="url(#03082fbc23)"><g clip-path="url(#e9749dc46b)"><path fill="#333333" d="M 304 219.40625 C 300.964844 218.136719 297.460938 219.578125 296.1875 222.621094 C 294.910156 225.660156 296.339844 229.167969 299.375 230.4375 C 302.410156 231.710938 305.917969 230.273438 307.191406 227.234375 C 308.464844 224.191406 307.035156 220.679688 304 219.40625 Z M 304 219.40625 " fill-opacity="1" fill-rule="nonzero"/></g></g></g><g clip-path="url(#bfb4f60866)"><g clip-path="url(#9570e33925)"><g clip-path="url(#ad67d0d143)"><path fill="#333333" d="M 322.949219 185.097656 C 321.675781 188.140625 323.105469 191.652344 326.140625 192.925781 C 329.175781 194.195312 332.679688 192.753906 333.957031 189.710938 C 335.230469 186.667969 333.800781 183.160156 330.769531 181.886719 C 327.734375 180.617188 324.226562 182.054688 322.949219 185.097656 Z M 322.949219 185.097656 " fill-opacity="1" fill-rule="nonzero"/></g></g></g><g clip-path="url(#569c80598a)"><g clip-path="url(#40356430fb)"><g clip-path="url(#91316485e3)"><path fill="#333333" d="M 328.910156 154.363281 C 330.621094 150.285156 328.703125 145.578125 324.632812 143.871094 C 320.566406 142.167969 315.863281 144.097656 314.152344 148.175781 C 312.441406 152.257812 314.359375 156.964844 318.429688 158.671875 C 322.5 160.375 327.199219 158.445312 328.910156 154.363281 Z M 328.910156 154.363281 " fill-opacity="1" fill-rule="nonzero"/></g></g></g><g clip-path="url(#1d00b21df2)"><g clip-path="url(#0eb643cd31)"><g clip-path="url(#9c94a55e43)"><path fill="#333333" d="M 273.035156 154.757812 C 271.988281 154.765625 271.148438 155.621094 271.15625 156.667969 C 271.1875 160.460938 272.082031 164.230469 273.75 167.574219 C 274.984375 170.03125 276.609375 172.253906 278.585938 174.179688 C 278.761719 174.351562 278.964844 174.480469 279.175781 174.570312 C 279.871094 174.863281 280.707031 174.71875 281.265625 174.144531 C 281.996094 173.394531 281.980469 172.195312 281.230469 171.464844 C 279.558594 169.835938 278.183594 167.953125 277.140625 165.878906 C 275.730469 163.050781 274.972656 159.855469 274.945312 156.636719 C 274.9375 155.589844 274.082031 154.75 273.035156 154.757812 Z M 273.035156 154.757812 " fill-opacity="1" fill-rule="nonzero"/></g></g></g></svg>