<svg xmlns="http://www.w3.org/2000/svg" xmlns:xlink="http://www.w3.org/1999/xlink" width="1000" zoomAndPan="magnify" viewBox="0 0 750 749.999995" height="1000" preserveAspectRatio="xMidYMid meet" version="1.0"><defs><g/><clipPath id="2027c41c13"><path d="M 42.863281 42.863281 L 707.136719 42.863281 L 707.136719 707.136719 L 42.863281 707.136719 Z M 42.863281 42.863281 " clip-rule="nonzero"/></clipPath><clipPath id="cf2d434d75"><path d="M 117.863281 42.863281 L 632.136719 42.863281 C 652.027344 42.863281 671.105469 50.765625 685.167969 64.832031 C 699.234375 78.894531 707.136719 97.972656 707.136719 117.863281 L 707.136719 632.136719 C 707.136719 652.027344 699.234375 671.105469 685.167969 685.167969 C 671.105469 699.234375 652.027344 707.136719 632.136719 707.136719 L 117.863281 707.136719 C 97.972656 707.136719 78.894531 699.234375 64.832031 685.167969 C 50.765625 671.105469 42.863281 652.027344 42.863281 632.136719 L 42.863281 117.863281 C 42.863281 97.972656 50.765625 78.894531 64.832031 64.832031 C 78.894531 50.765625 97.972656 42.863281 117.863281 42.863281 Z M 117.863281 42.863281 " clip-rule="nonzero"/></clipPath></defs><g clip-path="url(#2027c41c13)"><g clip-path="url(#cf2d434d75)"><path fill="#ffffff" d="M 42.863281 42.863281 L 707.136719 42.863281 L 707.136719 707.136719 L 42.863281 707.136719 Z M 42.863281 42.863281 " fill-opacity="1" fill-rule="nonzero"/></g></g><path fill="#000000" d="M 128.242188 438.9375 L 621.558594 438.9375 L 621.558594 433.417969 L 128.242188 433.417969 " fill-opacity="1" fill-rule="nonzero"/><path fill="#000000" d="M 272.289062 245.648438 C 272.058594 245.535156 268.589844 243.613281 263.644531 243.59375 C 261.441406 243.59375 258.929688 244.003906 256.402344 245.183594 C 255.378906 245.664062 254.359375 246.273438 253.355469 247.019531 C 252.96875 245.582031 252.4375 244.277344 251.792969 243.117188 C 250.742188 241.21875 249.425781 239.707031 248.066406 238.53125 C 246.027344 236.757812 243.886719 235.71875 242.25 235.09375 C 240.609375 234.472656 239.453125 234.273438 239.320312 234.253906 L 238.425781 239.695312 L 238.699219 238.015625 L 238.410156 239.695312 L 238.433594 239.695312 C 238.714844 239.742188 241.4375 240.347656 243.855469 242.214844 C 245.070312 243.148438 246.226562 244.371094 247.09375 246.03125 C 247.960938 247.691406 248.558594 249.808594 248.566406 252.65625 L 248.566406 252.878906 C 248.566406 252.878906 253.511719 254.59375 253.511719 254.59375 C 255.265625 252.316406 257.039062 250.984375 258.746094 250.183594 C 260.445312 249.386719 262.105469 249.117188 263.644531 249.109375 C 265.367188 249.109375 266.917969 249.464844 268.011719 249.828125 C 268.5625 250.011719 268.996094 250.183594 269.277344 250.3125 C 269.417969 250.375 269.519531 250.425781 269.578125 250.453125 L 269.640625 250.480469 C 269.640625 250.480469 270.390625 249.082031 270.390625 249.082031 L 272.289062 245.640625 Z M 272.289062 245.648438 " fill-opacity="1" fill-rule="nonzero"/><path fill="#000000" d="M 294.859375 213.421875 C 294.632812 213.304688 292.414062 212.070312 289.148438 212.050781 C 287.691406 212.050781 286.015625 212.316406 284.335938 213.109375 C 284.082031 213.230469 283.824219 213.367188 283.570312 213.515625 C 283.402344 213.105469 283.214844 212.707031 283.011719 212.339844 C 282.3125 211.082031 281.441406 210.074219 280.539062 209.289062 C 279.183594 208.109375 277.789062 207.433594 276.714844 207.023438 C 275.640625 206.621094 274.882812 206.484375 274.746094 206.464844 L 273.851562 211.90625 L 274.09375 210.4375 L 273.824219 211.90625 L 273.886719 211.921875 C 274.203125 211.980469 275.632812 212.378906 276.796875 213.351562 C 277.382812 213.835938 277.910156 214.441406 278.316406 215.253906 C 278.710938 216.074219 279.007812 217.117188 279.007812 218.59375 L 279.007812 218.714844 C 279.007812 218.714844 283.953125 220.421875 283.953125 220.421875 C 284.90625 219.179688 285.828125 218.515625 286.679688 218.109375 C 287.535156 217.714844 288.363281 217.574219 289.148438 217.574219 C 290.027344 217.574219 290.847656 217.761719 291.417969 217.949219 C 291.707031 218.042969 291.929688 218.136719 292.070312 218.199219 L 292.210938 218.265625 L 292.226562 218.265625 C 292.226562 218.265625 292.882812 217.027344 292.882812 217.027344 L 294.867188 213.425781 Z M 294.859375 213.421875 " fill-opacity="1" fill-rule="nonzero"/><path fill="#000000" d="M 524.246094 246.085938 L 524.496094 247.605469 L 523.601562 242.160156 C 523.367188 242.207031 519.890625 242.773438 516.222656 245.367188 C 514.394531 246.664062 512.527344 248.503906 511.128906 251.03125 C 510.484375 252.1875 509.953125 253.5 509.5625 254.9375 C 508.5625 254.191406 507.539062 253.578125 506.519531 253.101562 C 503.992188 251.917969 501.480469 251.507812 499.273438 251.507812 C 494.324219 251.527344 490.863281 253.457031 490.632812 253.566406 L 492.527344 257.019531 L 493.273438 258.410156 L 493.289062 258.410156 C 493.289062 258.410156 493.289062 258.402344 493.289062 258.402344 L 493.273438 258.382812 L 493.289062 258.402344 L 493.300781 258.402344 C 493.578125 258.25 496.15625 257.011719 499.273438 257.027344 C 500.8125 257.027344 502.472656 257.300781 504.175781 258.101562 C 505.875 258.902344 507.65625 260.226562 509.410156 262.507812 L 514.355469 260.796875 L 514.355469 260.574219 C 514.355469 257.582031 515.019531 255.40625 515.953125 253.707031 C 516.660156 252.4375 517.535156 251.429688 518.46875 250.617188 C 519.871094 249.390625 521.429688 248.621094 522.621094 248.167969 C 523.21875 247.941406 523.714844 247.800781 524.050781 247.710938 C 524.21875 247.671875 524.347656 247.636719 524.421875 247.625 L 524.496094 247.613281 L 524.503906 247.613281 C 524.503906 247.613281 524.238281 246.09375 524.238281 246.09375 Z M 524.246094 246.085938 " fill-opacity="1" fill-rule="nonzero"/><path fill="#000000" d="M 489.082031 219.816406 L 488.1875 214.375 C 487.953125 214.421875 485.722656 214.777344 483.300781 216.484375 C 482.097656 217.335938 480.847656 218.5625 479.921875 220.246094 C 479.714844 220.617188 479.53125 221.011719 479.363281 221.421875 C 479.109375 221.28125 478.851562 221.140625 478.597656 221.019531 C 476.917969 220.234375 475.246094 219.957031 473.785156 219.957031 C 470.515625 219.980469 468.304688 221.214844 468.074219 221.328125 L 470.082031 224.976562 L 470.050781 224.925781 L 470.707031 226.179688 C 470.707031 226.179688 470.789062 226.132812 470.949219 226.066406 C 471.425781 225.859375 472.550781 225.476562 473.785156 225.476562 C 474.574219 225.476562 475.398438 225.617188 476.253906 226.011719 C 477.105469 226.417969 478.027344 227.089844 478.980469 228.324219 L 483.925781 226.613281 L 483.925781 226.496094 C 483.925781 224.871094 484.28125 223.769531 484.746094 222.914062 C 485.101562 222.277344 485.53125 221.78125 486.011719 221.363281 C 486.722656 220.746094 487.542969 220.328125 488.167969 220.09375 C 488.476562 219.972656 488.738281 219.898438 488.90625 219.859375 L 489.082031 219.816406 L 489.066406 219.75 Z M 489.082031 219.816406 " fill-opacity="1" fill-rule="nonzero"/><path fill="#000000" d="M 372.140625 291.714844 L 377.65625 291.714844 L 377.65625 302.75 L 372.140625 302.75 Z M 372.140625 291.714844 " fill-opacity="1" fill-rule="nonzero"/><path fill="#000000" d="M 372.140625 269.640625 L 377.65625 269.640625 L 377.65625 280.671875 L 372.140625 280.671875 Z M 372.140625 269.640625 " fill-opacity="1" fill-rule="nonzero"/><path fill="#000000" d="M 372.140625 247.570312 L 377.65625 247.570312 L 377.65625 258.605469 L 372.140625 258.605469 Z M 372.140625 247.570312 " fill-opacity="1" fill-rule="nonzero"/><path fill="#000000" d="M 638.464844 411.390625 C 637.613281 266.542969 519.945312 149.390625 374.910156 149.386719 C 229.855469 149.386719 112.191406 266.535156 111.335938 411.390625 L 82.609375 411.390625 L 82.609375 416.910156 L 114.097656 416.910156 C 114.097656 416.910156 635.710938 416.910156 635.710938 416.910156 L 667.203125 416.910156 L 667.203125 411.390625 C 667.203125 411.390625 638.472656 411.390625 638.472656 411.390625 Z M 321.402344 160.460938 C 338.660156 156.824219 356.554688 154.902344 374.910156 154.902344 C 393.246094 154.902344 411.140625 156.816406 428.398438 160.460938 L 428.398438 182.976562 L 374.902344 222.082031 L 327.09375 187.144531 L 367.421875 187.144531 L 367.421875 181.628906 L 321.398438 181.628906 L 321.398438 160.472656 Z M 159.875 411.390625 C 160.230469 411.070312 160.601562 410.738281 160.992188 410.390625 C 169.773438 402.527344 186.527344 387.980469 201.070312 375.414062 C 208.339844 369.128906 215.058594 363.335938 219.964844 359.117188 C 222.417969 357.007812 224.414062 355.292969 225.796875 354.101562 C 226.46875 353.523438 226.996094 353.074219 227.355469 352.765625 L 250.816406 349.117188 L 313.339844 305.496094 L 304.597656 348.34375 L 280.480469 353.214844 L 248.566406 411.390625 Z M 254.855469 411.390625 L 284.082031 358.121094 L 309.265625 353.027344 L 319.160156 304.5625 L 374.054688 353.988281 L 390 357.847656 L 428.488281 411.390625 Z M 435.28125 411.390625 L 393.289062 352.96875 L 376.710938 348.957031 L 362.292969 335.980469 L 376.398438 325.234375 L 376.582031 325.46875 L 433.84375 281.480469 L 446.4375 271.882812 L 430.058594 327.902344 L 456.671875 325.058594 L 492.582031 411.390625 Z M 498.5625 411.390625 L 460.191406 319.132812 L 437.671875 321.539062 L 452.855469 269.59375 L 508.070312 319.3125 L 524.085938 323.183594 L 593.824219 411.398438 L 498.5625 411.398438 Z M 600.863281 411.390625 L 527.230469 318.265625 L 510.726562 314.273438 L 451.582031 261.019531 L 430.476562 277.097656 C 430.476562 277.097656 430.449219 277.117188 430.449219 277.117188 L 384.148438 312.390625 L 411.269531 263.90625 L 406.453125 261.210938 L 377.039062 313.789062 L 372.535156 313.789062 L 343.121094 261.210938 L 338.304688 263.90625 L 365.714844 312.910156 L 319.09375 277.09375 L 315.730469 281.464844 L 369.996094 323.15625 L 358.109375 332.210938 L 317.628906 295.753906 L 248.691406 343.847656 L 224.945312 347.542969 L 224.347656 348.054688 C 224.347656 348.054688 212.015625 358.640625 197.472656 371.207031 L 197.472656 340.871094 C 200.503906 344.359375 204.085938 346.421875 207.40625 347.570312 C 210.832031 348.761719 213.992188 349.03125 216.222656 349.03125 C 218.179688 349.03125 219.425781 348.820312 219.546875 348.800781 L 218.816406 344.535156 L 218.628906 343.363281 C 218.628906 343.363281 217.6875 343.511719 216.222656 343.511719 C 213.84375 343.511719 210.09375 343.109375 206.546875 341.1875 C 204.765625 340.226562 203.015625 338.902344 201.429688 337.019531 C 199.914062 335.214844 198.542969 332.882812 197.472656 329.832031 L 197.472656 319.207031 C 200.503906 322.695312 204.085938 324.757812 207.40625 325.90625 C 210.832031 327.09375 213.992188 327.363281 216.222656 327.363281 C 218.179688 327.363281 219.425781 327.15625 219.546875 327.136719 L 218.816406 322.867188 L 218.628906 321.699219 C 218.628906 321.699219 217.6875 321.847656 216.222656 321.847656 C 213.84375 321.847656 210.09375 321.445312 206.546875 319.523438 C 204.765625 318.5625 203.015625 317.238281 201.429688 315.355469 C 199.914062 313.546875 198.542969 311.214844 197.472656 308.164062 L 197.472656 297.539062 C 200.503906 301.027344 204.085938 303.089844 207.40625 304.242188 C 210.832031 305.429688 213.992188 305.699219 216.222656 305.699219 C 218.179688 305.699219 219.425781 305.492188 219.546875 305.46875 L 218.816406 301.203125 L 218.628906 300.035156 C 218.628906 300.035156 217.6875 300.183594 216.222656 300.183594 C 213.84375 300.183594 210.09375 299.777344 206.546875 297.855469 C 204.765625 296.894531 203.015625 295.570312 201.429688 293.691406 C 199.914062 291.882812 198.542969 289.550781 197.472656 286.5 L 197.472656 275.875 C 200.503906 279.363281 204.085938 281.425781 207.40625 282.574219 C 210.832031 283.765625 213.992188 284.035156 216.222656 284.035156 C 218.179688 284.035156 219.429688 283.824219 219.542969 283.804688 L 218.816406 279.550781 L 218.621094 278.367188 C 218.621094 278.367188 217.679688 278.515625 216.214844 278.515625 C 213.835938 278.515625 210.085938 278.113281 206.539062 276.191406 C 204.757812 275.230469 203.011719 273.90625 201.425781 272.023438 C 199.839844 270.144531 198.40625 267.691406 197.324219 264.4375 L 194.703125 256.589844 L 192.089844 264.4375 C 191.003906 267.691406 189.570312 270.144531 187.992188 272.023438 C 185.613281 274.839844 182.863281 276.433594 180.203125 277.367188 C 177.546875 278.296875 174.980469 278.523438 173.199219 278.515625 C 172.421875 278.515625 171.796875 278.476562 171.375 278.4375 C 171.164062 278.414062 171.011719 278.394531 170.910156 278.382812 L 170.808594 278.367188 L 170.796875 278.367188 C 170.796875 278.367188 170.601562 279.570312 170.601562 279.570312 L 170.808594 278.367188 L 169.882812 283.804688 C 170.003906 283.824219 171.253906 284.035156 173.207031 284.035156 C 176.179688 284.035156 180.820312 283.5625 185.5 281.050781 C 187.734375 279.847656 189.96875 278.160156 191.957031 275.867188 L 191.957031 286.5 C 190.886719 289.550781 189.515625 291.882812 188 293.691406 C 185.621094 296.507812 182.871094 298.097656 180.210938 299.03125 C 177.554688 299.960938 174.988281 300.1875 173.207031 300.183594 C 172.429688 300.183594 171.804688 300.140625 171.378906 300.101562 C 171.171875 300.082031 171.015625 300.0625 170.917969 300.046875 L 170.816406 300.035156 C 170.816406 300.035156 169.882812 305.46875 169.882812 305.46875 C 170.003906 305.492188 171.253906 305.699219 173.207031 305.699219 C 176.179688 305.699219 180.820312 305.230469 185.5 302.714844 C 187.734375 301.511719 189.96875 299.824219 191.957031 297.542969 L 191.957031 308.171875 C 190.886719 311.222656 189.515625 313.554688 188 315.363281 C 185.621094 318.179688 182.871094 319.769531 180.210938 320.703125 C 177.554688 321.632812 174.988281 321.859375 173.207031 321.855469 C 172.429688 321.855469 171.804688 321.8125 171.378906 321.773438 C 171.171875 321.753906 171.015625 321.734375 170.917969 321.71875 L 170.816406 321.707031 C 170.816406 321.707031 169.882812 327.144531 169.882812 327.144531 C 170.003906 327.164062 171.253906 327.371094 173.207031 327.371094 C 176.179688 327.371094 180.820312 326.902344 185.5 324.386719 C 187.734375 323.183594 189.96875 321.496094 191.957031 319.214844 L 191.957031 329.84375 C 190.886719 332.894531 189.515625 335.226562 188 337.035156 C 185.621094 339.851562 182.871094 341.441406 180.210938 342.375 C 177.554688 343.304688 174.988281 343.53125 173.207031 343.527344 C 172.429688 343.527344 171.804688 343.484375 171.378906 343.445312 C 171.171875 343.425781 171.015625 343.40625 170.917969 343.390625 L 170.816406 343.378906 C 170.816406 343.378906 169.882812 348.816406 169.882812 348.816406 C 170.003906 348.835938 171.253906 349.042969 173.207031 349.042969 C 176.179688 349.042969 180.820312 348.574219 185.5 346.058594 C 187.734375 344.855469 189.96875 343.167969 191.957031 340.886719 L 191.957031 375.992188 C 190.558594 377.199219 189.152344 378.417969 187.75 379.632812 C 178.597656 387.5625 169.449219 395.527344 162.578125 401.59375 C 159.144531 404.625 156.273438 407.183594 154.25 409.03125 C 153.234375 409.960938 152.4375 410.707031 151.859375 411.269531 C 151.8125 411.316406 151.777344 411.351562 151.738281 411.390625 L 116.839844 411.390625 C 117.261719 340.742188 146.050781 276.851562 192.414062 230.488281 C 225.8125 197.089844 268.308594 172.816406 315.875 161.691406 L 315.875 185.78125 C 315.875 185.78125 372.125 226.902344 372.125 226.902344 L 372.125 236.535156 L 377.644531 236.535156 L 377.644531 226.902344 L 433.898438 185.78125 L 433.898438 161.691406 C 481.460938 172.816406 523.957031 197.097656 557.355469 230.488281 C 603.710938 276.851562 632.507812 340.742188 632.929688 411.390625 L 600.839844 411.390625 Z M 600.863281 411.390625 " fill-opacity="1" fill-rule="nonzero"/><g fill="#1d1d1b" fill-opacity="1"><g transform="translate(87.225145, 530.167266)"><g><path d="M 17.890625 -36.53125 L 12.03125 -35.78125 L 12.03125 -2.4375 L 19.515625 -2.4375 C 23.535156 -2.4375 26.492188 -2.625 28.390625 -3 L 30.140625 -10.921875 L 31.984375 -10.921875 L 31.484375 0 L 1.671875 0 L 1.671875 -1.5 L 6.546875 -2.265625 L 6.546875 -35.78125 L 1.671875 -36.53125 L 1.671875 -38.03125 L 17.890625 -38.03125 Z M 17.890625 -36.53125 "/></g></g></g><g fill="#1d1d1b" fill-opacity="1"><g transform="translate(131.983555, 530.167266)"><g><path d="M 13.078125 -1.5 L 13.078125 0 L 0.5625 0 L 0.5625 -1.5 L 4.875 -2.265625 L 17.84375 -38.34375 L 23.21875 -38.34375 L 36.703125 -2.265625 L 41.515625 -1.5 L 41.515625 0 L 25.4375 0 L 25.4375 -1.5 L 30.546875 -2.265625 L 26.765625 -13.25 L 11.796875 -13.25 L 7.96875 -2.265625 Z M 19.171875 -34.25 L 12.640625 -15.796875 L 25.890625 -15.796875 Z M 19.171875 -34.25 "/></g></g></g><g fill="#1d1d1b" fill-opacity="1"><g transform="translate(203.809114, 530.167266)"><g><path d="M 36.40625 -1.984375 C 34.21875 -1.265625 31.941406 -0.660156 29.578125 -0.171875 C 27.210938 0.316406 24.671875 0.5625 21.953125 0.5625 C 15.785156 0.5625 10.976562 -1.097656 7.53125 -4.421875 C 4.09375 -7.753906 2.375 -12.472656 2.375 -18.578125 C 2.375 -25.234375 4.039062 -30.207031 7.375 -33.5 C 10.71875 -36.800781 15.613281 -38.453125 22.0625 -38.453125 C 26.675781 -38.453125 31.128906 -37.882812 35.421875 -36.75 L 35.421875 -28.578125 L 33.515625 -28.578125 L 32.75 -33.296875 C 31.445312 -34.222656 29.882812 -34.9375 28.0625 -35.4375 C 26.238281 -35.9375 24.316406 -36.1875 22.296875 -36.1875 C 17.453125 -36.1875 13.910156 -34.742188 11.671875 -31.859375 C 9.429688 -28.972656 8.3125 -24.5625 8.3125 -18.625 C 8.3125 -13.050781 9.460938 -8.820312 11.765625 -5.9375 C 14.078125 -3.050781 17.488281 -1.609375 22 -1.609375 C 23.59375 -1.609375 25.257812 -1.796875 27 -2.171875 C 28.738281 -2.554688 30.0625 -3.015625 30.96875 -3.546875 L 30.96875 -14.34375 L 26.09375 -15.09375 L 26.09375 -16.625 L 40.125 -16.625 L 40.125 -15.09375 L 36.40625 -14.34375 Z M 36.40625 -1.984375 "/></g></g></g><g fill="#1d1d1b" fill-opacity="1"><g transform="translate(255.86948, 530.167266)"><g><path d="M 12.03125 -16.671875 L 12.03125 -2.265625 L 17.78125 -1.5 L 17.78125 0 L 2.046875 0 L 2.046875 -1.5 L 6.546875 -2.265625 L 6.546875 -35.78125 L 1.671875 -36.53125 L 1.671875 -38.03125 L 18.09375 -38.03125 C 22.851562 -38.03125 26.367188 -37.222656 28.640625 -35.609375 C 30.910156 -34.003906 32.046875 -31.425781 32.046875 -27.875 C 32.046875 -25.34375 31.351562 -23.15625 29.96875 -21.3125 C 28.59375 -19.46875 26.6875 -18.1875 24.25 -17.46875 L 34.546875 -2.265625 L 38.65625 -1.5 L 38.65625 0 L 29.546875 0 L 18.859375 -16.671875 Z M 26.40625 -27.484375 C 26.40625 -30.367188 25.695312 -32.421875 24.28125 -33.640625 C 22.875 -34.859375 20.40625 -35.46875 16.875 -35.46875 L 12.03125 -35.46875 L 12.03125 -19.234375 L 17.046875 -19.234375 C 20.429688 -19.234375 22.835938 -19.859375 24.265625 -21.109375 C 25.691406 -22.367188 26.40625 -24.492188 26.40625 -27.484375 Z M 26.40625 -27.484375 "/></g></g></g><g fill="#1d1d1b" fill-opacity="1"><g transform="translate(302.098764, 530.167266)"><g><path d="M 13.078125 -1.5 L 13.078125 0 L 0.5625 0 L 0.5625 -1.5 L 4.875 -2.265625 L 17.84375 -38.34375 L 23.21875 -38.34375 L 36.703125 -2.265625 L 41.515625 -1.5 L 41.515625 0 L 25.4375 0 L 25.4375 -1.5 L 30.546875 -2.265625 L 26.765625 -13.25 L 11.796875 -13.25 L 7.96875 -2.265625 Z M 19.171875 -34.25 L 12.640625 -15.796875 L 25.890625 -15.796875 Z M 19.171875 -34.25 "/></g></g></g><g fill="#1d1d1b" fill-opacity="1"><g transform="translate(345.012562, 530.167266)"><g><path d="M 41.296875 -38.03125 L 41.296875 -36.53125 L 37.125 -35.78125 L 21.84375 0.875 L 20.390625 0.875 L 4.9375 -35.78125 L 0.65625 -36.53125 L 0.65625 -38.03125 L 16.015625 -38.03125 L 16.015625 -36.53125 L 10.921875 -35.78125 L 22.4375 -7.796875 L 33.921875 -35.78125 L 28.921875 -36.53125 L 28.921875 -38.03125 Z M 41.296875 -38.03125 "/></g></g></g><g fill="#1d1d1b" fill-opacity="1"><g transform="translate(396.525531, 530.167266)"><g><path d="M 12.421875 -2.265625 L 17.296875 -1.5 L 17.296875 0 L 2.09375 0 L 2.09375 -1.5 L 6.96875 -2.265625 L 6.96875 -35.78125 L 2.09375 -36.53125 L 2.09375 -38.03125 L 17.296875 -38.03125 L 17.296875 -36.53125 L 12.421875 -35.78125 Z M 12.421875 -2.265625 "/></g></g></g><g fill="#1d1d1b" fill-opacity="1"><g transform="translate(425.15248, 530.167266)"><g><path d="M 3.9375 -10.234375 L 5.78125 -10.234375 L 6.78125 -5.109375 C 7.476562 -4.210938 8.679688 -3.425781 10.390625 -2.75 C 12.097656 -2.070312 13.785156 -1.734375 15.453125 -1.734375 C 18.097656 -1.734375 20.160156 -2.40625 21.640625 -3.75 C 23.128906 -5.101562 23.875 -6.972656 23.875 -9.359375 C 23.875 -10.722656 23.582031 -11.847656 23 -12.734375 C 22.425781 -13.617188 21.671875 -14.367188 20.734375 -14.984375 C 19.804688 -15.597656 18.742188 -16.117188 17.546875 -16.546875 C 16.359375 -16.972656 15.132812 -17.398438 13.875 -17.828125 C 12.625 -18.265625 11.398438 -18.75 10.203125 -19.28125 C 9.015625 -19.8125 7.953125 -20.484375 7.015625 -21.296875 C 6.078125 -22.109375 5.320312 -23.113281 4.75 -24.3125 C 4.175781 -25.519531 3.890625 -27 3.890625 -28.75 C 3.890625 -31.78125 5.019531 -34.15625 7.28125 -35.875 C 9.550781 -37.59375 12.703125 -38.453125 16.734375 -38.453125 C 19.796875 -38.453125 23.125 -38.046875 26.71875 -37.234375 L 26.71875 -29.328125 L 24.875 -29.328125 L 23.875 -33.96875 C 21.945312 -35.375 19.566406 -36.078125 16.734375 -36.078125 C 14.203125 -36.078125 12.222656 -35.5625 10.796875 -34.53125 C 9.367188 -33.5 8.65625 -32.078125 8.65625 -30.265625 C 8.65625 -29.035156 8.941406 -28.007812 9.515625 -27.1875 C 10.085938 -26.375 10.84375 -25.679688 11.78125 -25.109375 C 12.71875 -24.535156 13.785156 -24.039062 14.984375 -23.625 C 16.179688 -23.207031 17.410156 -22.773438 18.671875 -22.328125 C 19.929688 -21.890625 21.160156 -21.390625 22.359375 -20.828125 C 23.554688 -20.273438 24.625 -19.566406 25.5625 -18.703125 C 26.5 -17.835938 27.253906 -16.785156 27.828125 -15.546875 C 28.410156 -14.316406 28.703125 -12.789062 28.703125 -10.96875 C 28.703125 -7.300781 27.578125 -4.460938 25.328125 -2.453125 C 23.078125 -0.441406 19.832031 0.5625 15.59375 0.5625 C 13.550781 0.5625 11.5 0.378906 9.4375 0.015625 C 7.382812 -0.335938 5.550781 -0.828125 3.9375 -1.453125 Z M 3.9375 -10.234375 "/></g></g></g><g fill="#1d1d1b" fill-opacity="1"><g transform="translate(462.624268, 530.167266)"><g><path d="M 8.9375 0 L 8.9375 -1.5 L 14.96875 -2.265625 L 14.96875 -35.59375 L 13.53125 -35.59375 C 8.75 -35.59375 5.476562 -35.398438 3.71875 -35.015625 L 2.953125 -29.09375 L 1.046875 -29.09375 L 1.046875 -38.03125 L 34.515625 -38.03125 L 34.515625 -29.09375 L 32.578125 -29.09375 L 31.8125 -35.015625 C 31.25 -35.148438 30.007812 -35.269531 28.09375 -35.375 C 26.1875 -35.476562 24.101562 -35.53125 21.84375 -35.53125 L 20.453125 -35.53125 L 20.453125 -2.265625 L 26.484375 -1.5 L 26.484375 0 Z M 8.9375 0 "/></g></g></g><g fill="#1d1d1b" fill-opacity="1"><g transform="translate(505.479493, 530.167266)"><g><path d="M 1.671875 -1.5 L 6.546875 -2.265625 L 6.546875 -35.78125 L 1.671875 -36.53125 L 1.671875 -38.03125 L 30.203125 -38.03125 L 30.203125 -28.921875 L 28.328125 -28.921875 L 27.421875 -35.078125 C 25.304688 -35.335938 22.242188 -35.46875 18.234375 -35.46875 L 12.03125 -35.46875 L 12.03125 -20.609375 L 22.296875 -20.609375 L 23.171875 -25.15625 L 24.984375 -25.15625 L 24.984375 -13.46875 L 23.171875 -13.46875 L 22.296875 -18.0625 L 12.03125 -18.0625 L 12.03125 -2.546875 L 19.515625 -2.546875 C 24.390625 -2.546875 27.582031 -2.695312 29.09375 -3 L 30.71875 -10.03125 L 32.578125 -10.03125 L 32.046875 0 L 1.671875 0 Z M 1.671875 -1.5 "/></g></g></g><g fill="#1d1d1b" fill-opacity="1"><g transform="translate(547.409192, 530.167266)"><g><path d="M 12.03125 -16.671875 L 12.03125 -2.265625 L 17.78125 -1.5 L 17.78125 0 L 2.046875 0 L 2.046875 -1.5 L 6.546875 -2.265625 L 6.546875 -35.78125 L 1.671875 -36.53125 L 1.671875 -38.03125 L 18.09375 -38.03125 C 22.851562 -38.03125 26.367188 -37.222656 28.640625 -35.609375 C 30.910156 -34.003906 32.046875 -31.425781 32.046875 -27.875 C 32.046875 -25.34375 31.351562 -23.15625 29.96875 -21.3125 C 28.59375 -19.46875 26.6875 -18.1875 24.25 -17.46875 L 34.546875 -2.265625 L 38.65625 -1.5 L 38.65625 0 L 29.546875 0 L 18.859375 -16.671875 Z M 26.40625 -27.484375 C 26.40625 -30.367188 25.695312 -32.421875 24.28125 -33.640625 C 22.875 -34.859375 20.40625 -35.46875 16.875 -35.46875 L 12.03125 -35.46875 L 12.03125 -19.234375 L 17.046875 -19.234375 C 20.429688 -19.234375 22.835938 -19.859375 24.265625 -21.109375 C 25.691406 -22.367188 26.40625 -24.492188 26.40625 -27.484375 Z M 26.40625 -27.484375 "/></g></g></g><g fill="#1d1d1b" fill-opacity="1"><g transform="translate(596.180738, 530.167266)"><g><path d="M 12.421875 -2.265625 L 17.296875 -1.5 L 17.296875 0 L 2.09375 0 L 2.09375 -1.5 L 6.96875 -2.265625 L 6.96875 -35.78125 L 2.09375 -36.53125 L 2.09375 -38.03125 L 17.296875 -38.03125 L 17.296875 -36.53125 L 12.421875 -35.78125 Z M 12.421875 -2.265625 "/></g></g></g><g fill="#1d1d1b" fill-opacity="1"><g transform="translate(624.579061, 530.167266)"><g><path d="M 1.671875 -1.5 L 6.546875 -2.265625 L 6.546875 -35.78125 L 1.671875 -36.53125 L 1.671875 -38.03125 L 30.203125 -38.03125 L 30.203125 -28.921875 L 28.328125 -28.921875 L 27.421875 -35.078125 C 25.304688 -35.335938 22.242188 -35.46875 18.234375 -35.46875 L 12.03125 -35.46875 L 12.03125 -20.609375 L 22.296875 -20.609375 L 23.171875 -25.15625 L 24.984375 -25.15625 L 24.984375 -13.46875 L 23.171875 -13.46875 L 22.296875 -18.0625 L 12.03125 -18.0625 L 12.03125 -2.546875 L 19.515625 -2.546875 C 24.390625 -2.546875 27.582031 -2.695312 29.09375 -3 L 30.71875 -10.03125 L 32.578125 -10.03125 L 32.046875 0 L 1.671875 0 Z M 1.671875 -1.5 "/></g></g></g></svg>