<?xml version="1.0" encoding="UTF-8"?>
<svg xmlns="http://www.w3.org/2000/svg" viewBox="0 0 1000 1000">
  <g id="Dessin">
    <polyline id="ligne" points="132.95 595.29 867.05 595.29 867.05 587.08 132.95 587.08"/>
    <g id="Oiseaux">
      <path id="Oiseau_G2" data-name="Oiseau G2" d="M347.3,307.66c-.34-.17-5.5-3.03-12.86-3.06-3.28,0-7.02.61-10.78,2.37-1.52.71-3.04,1.62-4.53,2.73-.58-2.14-1.37-4.08-2.33-5.81-1.56-2.82-3.52-5.07-5.54-6.82-3.04-2.64-6.22-4.19-8.66-5.12-2.44-.92-4.16-1.22-4.36-1.25l-1.33,8.1.41-2.5-.43,2.5h.03c.42.07,4.47.97,8.07,3.75,1.81,1.39,3.53,3.21,4.82,5.68,1.29,2.47,2.18,5.62,2.19,9.86v.33s7.36,2.55,7.36,2.55c2.61-3.39,5.25-5.37,7.79-6.56,2.53-1.19,5-1.59,7.29-1.6,2.56,0,4.87.53,6.5,1.07.82.27,1.46.53,1.88.72.21.09.36.17.45.21l.09.04h0s1.12-2.08,1.12-2.08l2.82-5.12h0Z"/>
      <path id="Oiseau._G1" data-name="Oiseau. G1" d="M380.89,259.7c-.34-.17-3.64-2.01-8.5-2.04-2.17,0-4.66.4-7.16,1.58-.38.18-.76.38-1.14.6-.25-.61-.53-1.2-.83-1.75-1.04-1.87-2.34-3.37-3.68-4.54-2.02-1.75-4.09-2.76-5.69-3.37-1.6-.6-2.73-.8-2.93-.83l-1.33,8.1.36-2.19-.4,2.19.09.02c.47.09,2.6.68,4.33,2.13.87.72,1.66,1.62,2.26,2.83.59,1.22,1.03,2.77,1.03,4.97v.18s7.36,2.54,7.36,2.54c1.42-1.85,2.79-2.84,4.06-3.44,1.27-.59,2.5-.8,3.67-.8,1.31,0,2.53.28,3.38.56.43.14.76.28.97.37l.21.1h.02s.98-1.84.98-1.84l2.95-5.36h0Z"/>
      <path id="Oiseau_D2" data-name="Oiseau D2" d="M722.24,308.31l.37,2.26-1.33-8.1c-.35.07-5.52.91-10.98,4.77-2.72,1.93-5.5,4.67-7.58,8.43-.96,1.72-1.75,3.67-2.33,5.81-1.49-1.11-3.01-2.02-4.53-2.73-3.76-1.76-7.5-2.37-10.78-2.37-7.37.03-12.52,2.9-12.86,3.06l2.82,5.14,1.11,2.07h.02s0-.01,0-.01l-.02-.03.02.03h.02c.41-.23,4.25-2.07,8.89-2.05,2.29,0,4.76.41,7.29,1.6,2.53,1.19,5.18,3.16,7.79,6.56l7.36-2.55v-.33c0-4.45.99-7.69,2.38-10.22,1.05-1.89,2.35-3.39,3.74-4.6,2.09-1.82,4.41-2.97,6.18-3.64.89-.34,1.63-.55,2.13-.68.25-.06.44-.11.55-.13l.11-.02h.01s-.39-2.26-.39-2.26Z"/>
      <path id="oiseau_D1" data-name="oiseau D1" d="M669.91,269.22l-1.33-8.1c-.35.07-3.67.6-7.27,3.14-1.79,1.27-3.65,3.09-5.03,5.6-.31.55-.58,1.14-.83,1.75-.38-.21-.76-.42-1.14-.6-2.5-1.17-4.99-1.58-7.16-1.58-4.87.03-8.16,1.87-8.5,2.04l2.99,5.43-.05-.08.98,1.87s.12-.07.36-.17c.71-.31,2.38-.88,4.22-.88,1.17,0,2.4.21,3.67.8,1.27.6,2.64,1.6,4.06,3.44l7.36-2.55v-.17c0-2.42.53-4.06,1.22-5.33.53-.95,1.17-1.69,1.88-2.31,1.06-.92,2.28-1.54,3.21-1.89.46-.18.85-.29,1.1-.35l.26-.06-.02-.1.02.1Z"/>
    </g>
    <g id="Traits">
      <rect id="T3" x="495.89" y="376.21" width="8.21" height="16.42"/>
      <rect id="T2" x="495.89" y="343.36" width="8.21" height="16.42"/>
      <rect id="T1" x="495.89" y="310.52" width="8.21" height="16.42"/>
    </g>
    <path id="Dessin_G" data-name="Dessin G" d="M892.21,554.3c-1.27-215.55-176.37-389.88-392.2-389.89-215.85,0-390.95,174.33-392.22,389.89h-42.75v8.21h46.86s776.21,0,776.21,0h46.86v-8.21h0s-42.75,0-42.75,0ZM420.39,180.89c25.68-5.41,52.31-8.27,79.62-8.27,27.29,0,53.92,2.85,79.6,8.27v33.51l-79.61,58.19-71.14-51.99h60.01v-8.21h-68.49v-31.48ZM180.02,554.3c.53-.48,1.08-.97,1.66-1.49,13.07-11.7,38-33.35,59.64-52.05,10.82-9.35,20.82-17.97,28.12-24.25,3.65-3.14,6.62-5.69,8.68-7.46,1-.86,1.78-1.53,2.32-1.99l34.91-5.43,93.04-64.91-13.01,63.76-35.89,7.25-47.49,86.57h-131.98ZM321.36,554.3l43.49-79.27,37.48-7.58,14.72-72.12,81.69,73.55,23.73,5.74,57.27,79.68h-258.37ZM589.85,554.3l-62.49-86.94-24.67-5.97-21.45-19.31,20.99-15.99.27.35,85.21-65.46h0l18.74-14.28-24.37,83.36,39.6-4.23,53.44,128.47h-85.27ZM684.02,554.3l-57.1-137.29-33.51,3.58,22.59-77.3,82.17,73.99,23.83,5.76,103.78,131.27h-141.76ZM836.25,554.3l-109.57-138.58-24.56-5.94-88.01-79.25-31.41,23.93h0s-.04.03-.04.03l-68.9,52.49,40.36-72.15-7.17-4.01-43.77,78.24h-6.7l-43.77-78.24-7.17,4.01,40.79,72.92-69.38-53.3-5,6.51,80.75,62.04-17.69,13.47-60.24-54.25-102.58,71.57-35.34,5.5-.89.76s-18.35,15.75-39.99,34.45v-45.14c4.51,5.19,9.84,8.26,14.78,9.97,5.1,1.77,9.8,2.17,13.12,2.17,2.91,0,4.77-.31,4.95-.34l-1.09-6.35-.28-1.74s-1.4.22-3.58.22c-3.54,0-9.12-.6-14.4-3.46-2.65-1.43-5.25-3.4-7.61-6.2-2.26-2.69-4.3-6.16-5.89-10.7v-15.81c4.51,5.19,9.84,8.26,14.78,9.97,5.1,1.77,9.8,2.17,13.12,2.17,2.91,0,4.77-.31,4.95-.34l-1.09-6.35-.28-1.74s-1.4.22-3.58.22c-3.54,0-9.12-.6-14.4-3.46-2.65-1.43-5.25-3.4-7.61-6.2-2.26-2.69-4.3-6.16-5.89-10.7v-15.81c4.51,5.19,9.84,8.26,14.78,9.97,5.1,1.77,9.8,2.17,13.12,2.17,2.91,0,4.77-.31,4.95-.34l-1.09-6.35-.28-1.74s-1.4.22-3.58.22c-3.54,0-9.12-.6-14.4-3.46-2.65-1.43-5.25-3.4-7.61-6.2-2.26-2.69-4.3-6.16-5.89-10.7v-15.81c4.51,5.19,9.84,8.26,14.78,9.97,5.1,1.77,9.8,2.17,13.12,2.17,2.91,0,4.77-.31,4.94-.34l-1.08-6.33-.29-1.76s-1.4.22-3.58.22c-3.54,0-9.12-.6-14.4-3.46-2.65-1.43-5.25-3.4-7.61-6.2-2.36-2.8-4.49-6.45-6.1-11.29l-3.9-11.68-3.89,11.68c-1.62,4.84-3.75,8.49-6.1,11.29-3.54,4.19-7.63,6.56-11.59,7.95-3.95,1.38-7.77,1.72-10.42,1.71-1.16,0-2.09-.06-2.72-.12-.31-.03-.54-.06-.69-.08l-.15-.02h-.02s-.29,1.79-.29,1.79l.31-1.79-1.38,8.09c.18.03,2.04.34,4.95.34,4.42,0,11.33-.7,18.29-4.44,3.33-1.79,6.65-4.3,9.61-7.71v15.82c-1.59,4.54-3.63,8.01-5.89,10.7-3.54,4.19-7.63,6.56-11.59,7.95-3.95,1.38-7.77,1.72-10.42,1.71-1.16,0-2.09-.06-2.72-.12-.31-.03-.54-.06-.69-.08l-.15-.02h0s-1.39,8.09-1.39,8.09c.18.03,2.04.34,4.95.34,4.42,0,11.33-.7,18.29-4.44,3.33-1.79,6.65-4.3,9.61-7.7v15.82c-1.59,4.54-3.63,8.01-5.89,10.7-3.54,4.19-7.63,6.56-11.59,7.95-3.95,1.38-7.77,1.72-10.42,1.71-1.16,0-2.09-.06-2.72-.12-.31-.03-.54-.06-.69-.08l-.15-.02h0s-1.39,8.09-1.39,8.09c.18.03,2.04.34,4.95.34,4.42,0,11.33-.7,18.29-4.44,3.33-1.79,6.65-4.3,9.61-7.7v15.82c-1.59,4.54-3.63,8.01-5.89,10.7-3.54,4.19-7.63,6.56-11.59,7.95-3.95,1.38-7.77,1.72-10.42,1.71-1.16,0-2.09-.06-2.72-.12-.31-.03-.54-.06-.69-.08l-.15-.02h0s-1.39,8.09-1.39,8.09c.18.03,2.04.34,4.95.34,4.42,0,11.33-.7,18.29-4.44,3.33-1.79,6.65-4.3,9.61-7.7v52.24c-2.08,1.8-4.17,3.61-6.26,5.42-13.62,11.8-27.23,23.65-37.46,32.68-5.11,4.51-9.38,8.32-12.39,11.07-1.51,1.38-2.7,2.49-3.56,3.33-.07.07-.12.12-.18.18h-51.93c.63-105.13,43.47-200.21,112.46-269.2,49.7-49.7,112.94-85.82,183.72-102.38v35.85s83.71,61.19,83.71,61.19v14.34h8.21v-14.34l83.71-61.19v-35.85c70.78,16.56,134.02,52.69,183.72,102.38,68.98,68.99,111.83,164.07,112.46,269.2h-47.75Z"/>
  </g>
  <g id="Texte">
    <g>
      <path d="M114.6,731.05h-38.98v-.86c.92,0,1.66-.04,2.2-.13.55-.09.96-.27,1.25-.56.29-.29.48-.71.56-1.25.09-.55.13-1.31.13-2.29v-48.31c0-.92-.04-1.67-.13-2.25-.09-.58-.27-1.01-.56-1.3-.29-.29-.71-.48-1.25-.56-.55-.09-1.28-.13-2.2-.13v-.86h15.9v.86c-.92,0-1.67.04-2.25.13-.58.09-1.02.27-1.34.56-.32.29-.53.71-.65,1.25-.12.55-.17,1.31-.17,2.29v47.62c0,.52.16.91.48,1.17.32.26.69.42,1.12.48.43.06.89.07,1.38.04.49-.03.91-.04,1.25-.04h12.62c1.56,0,2.94-.06,4.15-.17,1.21-.11,2.28-.39,3.2-.82.92-.43,1.74-1.09,2.46-1.99.72-.89,1.43-2.09,2.12-3.59l1.12.26-2.42,10.46Z"/>
      <path d="M176.31,731.05v-.86c1.32,0,2.3-.24,2.94-.73.63-.49.63-1.45,0-2.9l-5.36-13.14h-26.01l-4.84,12.1c-.63,1.5-.82,2.65-.56,3.46.26.81,1.31,1.21,3.15,1.21v.86h-12.1v-.86c.69-.06,1.28-.26,1.77-.6.49-.35.92-.75,1.3-1.21.37-.46.69-.98.95-1.56.26-.58.5-1.15.73-1.73l22.12-53.15h4.75l22.99,55.4c.63,1.56,1.87,2.51,3.72,2.85v.86h-15.56ZM161.01,681.01l-11.41,28.17h22.82l-11.41-28.17Z"/>
      <path d="M302.87,700.89c-.84.52-1.25,1.35-1.25,2.51v23.33c-.35.46-.85.88-1.51,1.25-.66.38-1.37.72-2.12,1.04-.75.32-1.5.58-2.25.78-.75.2-1.38.39-1.9.56-5.59,1.56-10.98,2.12-16.16,1.69-5.19-.43-9.78-1.86-13.78-4.28-4-2.42-7.22-5.82-9.64-10.2-2.42-4.38-3.63-9.71-3.63-15.99,0-4.32.72-8.33,2.16-12.01,1.44-3.69,3.47-6.87,6.09-9.55,2.62-2.68,5.75-4.78,9.38-6.31,3.63-1.53,7.63-2.29,12.01-2.29,3.4,0,6.86.4,10.37,1.21.11.06.49.17,1.12.35.63.17,1.31.35,2.03.52.72.17,1.66.4,2.81.69.4-.06.81-.22,1.21-.47.4-.26.63-.62.69-1.08h1.04c0,.63-.02,1.54-.04,2.72-.03,1.18-.07,2.41-.13,3.67-.06,1.27-.14,2.46-.26,3.59-.12,1.12-.29,1.94-.52,2.46.06.12.11.22.17.3.06.09.11.19.17.3l-.35-.6c-1.79-3.11-4.13-5.46-7.04-7.04-2.91-1.58-6.18-2.38-9.81-2.38-3.98,0-7.42.71-10.33,2.12-2.91,1.41-5.33,3.34-7.26,5.79-1.93,2.45-3.36,5.3-4.28,8.56-.92,3.26-1.38,6.7-1.38,10.33,0,3.4.48,6.68,1.43,9.85.95,3.17,2.61,6.05,4.97,8.64,2.3,2.54,4.93,4.34,7.86,5.4,2.94,1.07,6.08,1.6,9.42,1.6.69,0,1.66-.06,2.9-.17,1.24-.11,2.48-.3,3.72-.56,1.24-.26,2.39-.62,3.46-1.08,1.07-.46,1.8-1.07,2.2-1.82v-20.57c0-.98-.17-1.7-.52-2.16-.35-.46-.81-.78-1.38-.95-.58-.17-1.21-.24-1.9-.22-.69.03-1.41.04-2.16.04v-1.21h17.2v.86c-1.04,0-1.97.26-2.81.78ZM298.94,685.68c-.06-.11-.12-.22-.17-.3-.06-.09-.12-.19-.17-.3l.35.6Z"/>
      <path d="M365.05,731.05c-1.38-3.05-2.77-5.8-4.15-8.25-1.38-2.45-2.88-4.74-4.49-6.87-1.61-2.13-3.37-4.18-5.27-6.14-1.9-1.96-4.06-4-6.48-6.14l-6.22.09v22.21c0,.98.06,1.76.17,2.33.11.58.32,1.01.6,1.3.29.29.72.46,1.3.52.58.06,1.32.09,2.25.09v.86h-15.73v-.86c.86,0,1.57-.04,2.12-.13.55-.09.96-.27,1.25-.56.29-.29.48-.71.56-1.25.09-.55.13-1.31.13-2.29v-48.31c0-.92-.04-1.67-.13-2.25-.09-.58-.27-1.01-.56-1.3-.29-.29-.71-.48-1.25-.56-.55-.09-1.25-.13-2.12-.13v-.86h20.65c2.53,0,4.97.27,7.3.82,2.33.55,4.39,1.43,6.18,2.64,1.79,1.21,3.21,2.79,4.28,4.75,1.07,1.96,1.6,4.38,1.6,7.26,0,2.19-.4,4.1-1.21,5.75-.81,1.64-1.9,3.02-3.28,4.15-1.38,1.12-2.97,2.03-4.75,2.72-1.79.69-3.66,1.18-5.62,1.47,1.67,1.38,3.02,2.56,4.06,3.54,1.04.98,1.94,1.92,2.72,2.81.78.89,1.54,1.82,2.29,2.77.75.95,1.64,2.06,2.68,3.33,1.15,1.44,2.25,3.07,3.28,4.88,1.04,1.82,2,3.52,2.9,5.1.89,1.58,1.71,2.92,2.46,4.02.75,1.09,1.47,1.64,2.16,1.64v.86h-9.68ZM338.44,699.59h4.15c2.07,0,4.11-.19,6.09-.56,1.99-.37,3.79-1.04,5.4-1.99,1.61-.95,2.91-2.23,3.89-3.85.98-1.61,1.47-3.63,1.47-6.05,0-2.13-.4-3.89-1.21-5.27-.81-1.38-1.89-2.46-3.24-3.24-1.35-.78-2.9-1.31-4.62-1.6-1.73-.29-3.49-.43-5.27-.43h-1.73c-.58,0-1.18.03-1.81.09-.63.06-1.22.2-1.77.43-.55.23-.99.55-1.34.95v21.52Z"/>
      <path d="M435.75,731.05v-.86c1.32,0,2.3-.24,2.94-.73.63-.49.63-1.45,0-2.9l-5.36-13.14h-26.01l-4.84,12.1c-.63,1.5-.82,2.65-.56,3.46.26.81,1.31,1.21,3.15,1.21v.86h-12.1v-.86c.69-.06,1.28-.26,1.77-.6.49-.35.92-.75,1.3-1.21.37-.46.69-.98.95-1.56.26-.58.5-1.15.73-1.73l22.12-53.15h4.75l22.99,55.4c.63,1.56,1.87,2.51,3.72,2.85v.86h-15.56ZM420.45,681.01l-11.41,28.17h22.82l-11.41-28.17Z"/>
      <path d="M509.51,674.44c-.55.69-1.02,1.53-1.43,2.51l-21.17,54.71h-3.54l-22.3-54.53c-.46-1.09-1.02-1.97-1.69-2.64-.66-.66-1.6-1.02-2.81-1.08v-.86h15.3v.86c-.58,0-1.12.01-1.64.04-.52.03-.95.14-1.3.35-.35.2-.56.5-.65.91-.09.4.01.95.3,1.64l17.63,44.42,16.25-42.52c.63-1.61.78-2.79.43-3.54-.35-.75-1.44-1.18-3.28-1.3v-.86h12.44v.86c-1.15,0-2,.35-2.55,1.04Z"/>
      <path d="M535.91,731.05v-.86c.98,0,1.77-.03,2.38-.09s1.08-.22,1.43-.48c.35-.26.58-.68.69-1.25.11-.58.17-1.38.17-2.42v-48.31c0-1.04-.06-1.84-.17-2.42-.12-.58-.35-.99-.69-1.25-.35-.26-.82-.42-1.43-.48-.6-.06-1.4-.09-2.38-.09v-.86h16.77v.86c-.98,0-1.77.03-2.38.09-.6.06-1.08.22-1.43.48-.35.26-.58.68-.69,1.25-.12.58-.17,1.38-.17,2.42v48.31c0,1.04.06,1.84.17,2.42.11.58.35.99.69,1.25.35.26.82.42,1.43.48s1.4.09,2.38.09v.86h-16.77Z"/>
      <path d="M577.99,729.88c-.29.26-.43.62-.43,1.08h-1.04l-.43-12.62.17-.26h.78c1.04,2.48,2.43,4.46,4.19,5.96,1.76,1.5,3.61,2.58,5.57,3.24,1.96.66,3.95.94,5.96.82,2.02-.11,3.85-.6,5.49-1.47s2.97-2.06,3.98-3.59c1.01-1.53,1.51-3.33,1.51-5.4,0-2.48-.68-4.55-2.03-6.22-1.35-1.67-3.04-3.18-5.06-4.54-2.02-1.35-4.22-2.65-6.61-3.89-2.39-1.24-4.6-2.62-6.61-4.15-2.02-1.53-3.7-3.31-5.06-5.36-1.35-2.04-2.03-4.59-2.03-7.65,0-2.25.48-4.25,1.43-6.01.95-1.76,2.2-3.27,3.76-4.54,1.56-1.27,3.33-2.23,5.31-2.9,1.99-.66,4.02-.99,6.09-.99,1.21,0,2.41.1,3.59.3,1.18.2,2.35.48,3.5.82.11.06.43.16.95.3.52.14,1.08.3,1.69.47s1.17.33,1.69.48c.52.14.81.22.86.22.98-.11,1.53-.66,1.64-1.64h.95c.23,2.13.45,4.32.65,6.57.2,2.25.24,4.44.13,6.57h-.95c-.75-2.19-1.87-4-3.37-5.44-1.5-1.44-3.15-2.53-4.97-3.28-1.81-.75-3.7-1.12-5.66-1.12s-3.64.35-5.23,1.04c-1.59.69-2.88,1.73-3.89,3.11-1.01,1.38-1.51,3.08-1.51,5.1,0,1.56.42,2.92,1.25,4.1.83,1.18,1.83,2.26,2.98,3.24,1.5,1.21,3.08,2.33,4.75,3.37,1.67,1.04,3.37,2.02,5.1,2.94l-.6-.26c1.9.98,3.73,2.05,5.49,3.2,1.76,1.15,3.33,2.45,4.71,3.89,1.38,1.44,2.48,3.07,3.28,4.88.81,1.81,1.21,3.9,1.21,6.27s-.55,4.68-1.64,6.61c-1.1,1.93-2.52,3.56-4.28,4.88-1.76,1.33-3.73,2.33-5.92,3.02-2.19.69-4.41,1.04-6.65,1.04-2.42,0-4.72-.29-6.91-.86-2.19-.58-4.44-1.18-6.74-1.81-.4.06-.75.22-1.04.47Z"/>
      <path d="M676.86,682.91c-.46-2.3-1.2-3.87-2.2-4.71-1.01-.83-2.67-1.25-4.97-1.25h-11.23v49c0,1.04.06,1.83.17,2.38.11.55.35.97.69,1.25s.82.46,1.43.52,1.4.09,2.38.09v.86h-16.68v-.86c.92,0,1.69-.03,2.29-.09s1.08-.23,1.43-.52.59-.71.73-1.25c.14-.55.22-1.34.22-2.38v-49h-11.41c-2.25,0-3.9.43-4.97,1.3-1.07.86-1.83,2.42-2.29,4.67h-.78l.35-10.37h45.46l.26,10.37h-.86Z"/>
      <path d="M737.7,731.05h-39.41v-.86c1.79,0,2.91-.24,3.37-.73.46-.49.69-1.66.69-3.5v-48.31c0-1.84-.23-3.01-.69-3.5-.46-.49-1.58-.73-3.37-.73v-.86h38.54l.09,8.9h-1.21c-.29-2.19-.97-3.53-2.03-4.02-1.07-.49-2.61-.73-4.62-.73h-17.46c-.98,0-1.54.1-1.69.3-.14.2-.22.76-.22,1.69v19.79h17.54c.92,0,1.73-.04,2.42-.13.69-.09,1.25-.27,1.69-.56.43-.29.76-.72.99-1.3.23-.58.4-1.35.52-2.33h1.12v13.05h-1.12c-.12-1.04-.29-1.84-.52-2.42-.23-.58-.56-1.02-.99-1.34-.43-.32-.98-.52-1.64-.6-.66-.09-1.48-.13-2.46-.13h-17.54v22.56c0,.52.16.91.48,1.17.32.26.69.42,1.12.48.43.06.89.07,1.38.04.49-.03.91-.04,1.25-.04h14.26c1.38,0,2.58-.07,3.59-.22,1.01-.14,1.92-.45,2.72-.91.81-.46,1.53-1.08,2.16-1.86.63-.78,1.24-1.83,1.81-3.15h1.38l-2.16,10.28Z"/>
      <path d="M798.89,731.05c-1.38-3.05-2.77-5.8-4.15-8.25-1.38-2.45-2.88-4.74-4.49-6.87-1.61-2.13-3.37-4.18-5.27-6.14-1.9-1.96-4.06-4-6.48-6.14l-6.22.09v22.21c0,.98.06,1.76.17,2.33.11.58.32,1.01.6,1.3.29.29.72.46,1.3.52.58.06,1.32.09,2.25.09v.86h-15.73v-.86c.86,0,1.57-.04,2.12-.13.55-.09.96-.27,1.25-.56.29-.29.48-.71.56-1.25.09-.55.13-1.31.13-2.29v-48.31c0-.92-.04-1.67-.13-2.25-.09-.58-.27-1.01-.56-1.3-.29-.29-.71-.48-1.25-.56-.55-.09-1.25-.13-2.12-.13v-.86h20.65c2.53,0,4.97.27,7.3.82,2.33.55,4.39,1.43,6.18,2.64,1.79,1.21,3.21,2.79,4.28,4.75,1.07,1.96,1.6,4.38,1.6,7.26,0,2.19-.4,4.1-1.21,5.75-.81,1.64-1.9,3.02-3.28,4.15-1.38,1.12-2.97,2.03-4.75,2.72-1.79.69-3.66,1.18-5.62,1.47,1.67,1.38,3.02,2.56,4.06,3.54,1.04.98,1.94,1.92,2.72,2.81.78.89,1.54,1.82,2.29,2.77.75.95,1.64,2.06,2.68,3.33,1.15,1.44,2.25,3.07,3.28,4.88,1.04,1.82,2,3.52,2.9,5.1.89,1.58,1.71,2.92,2.46,4.02.75,1.09,1.47,1.64,2.16,1.64v.86h-9.68ZM772.27,699.59h4.15c2.07,0,4.11-.19,6.09-.56,1.99-.37,3.79-1.04,5.4-1.99,1.61-.95,2.91-2.23,3.89-3.85.98-1.61,1.47-3.63,1.47-6.05,0-2.13-.4-3.89-1.21-5.27-.81-1.38-1.89-2.46-3.24-3.24-1.35-.78-2.9-1.31-4.62-1.6-1.73-.29-3.49-.43-5.27-.43h-1.73c-.58,0-1.18.03-1.81.09-.63.06-1.22.2-1.77.43-.55.23-.99.55-1.34.95v21.52Z"/>
      <path d="M833.02,731.05v-.86c.98,0,1.77-.03,2.38-.09s1.08-.22,1.43-.48c.35-.26.58-.68.69-1.25.11-.58.17-1.38.17-2.42v-48.31c0-1.04-.06-1.84-.17-2.42-.12-.58-.35-.99-.69-1.25-.35-.26-.82-.42-1.43-.48-.6-.06-1.4-.09-2.38-.09v-.86h16.77v.86c-.98,0-1.77.03-2.38.09-.6.06-1.08.22-1.43.48-.35.26-.58.68-.69,1.25-.12.58-.17,1.38-.17,2.42v48.31c0,1.04.06,1.84.17,2.42.11.58.35.99.69,1.25.35.26.82.42,1.43.48s1.4.09,2.38.09v.86h-16.77Z"/>
      <path d="M914.95,731.05h-39.41v-.86c1.79,0,2.91-.24,3.37-.73.46-.49.69-1.66.69-3.5v-48.31c0-1.84-.23-3.01-.69-3.5-.46-.49-1.58-.73-3.37-.73v-.86h38.54l.09,8.9h-1.21c-.29-2.19-.97-3.53-2.03-4.02-1.07-.49-2.61-.73-4.62-.73h-17.46c-.98,0-1.54.1-1.69.3-.14.2-.22.76-.22,1.69v19.79h17.54c.92,0,1.73-.04,2.42-.13.69-.09,1.25-.27,1.69-.56.43-.29.76-.72.99-1.3.23-.58.4-1.35.52-2.33h1.12v13.05h-1.12c-.12-1.04-.29-1.84-.52-2.42-.23-.58-.56-1.02-.99-1.34-.43-.32-.98-.52-1.64-.6-.66-.09-1.48-.13-2.46-.13h-17.54v22.56c0,.52.16.91.48,1.17.32.26.69.42,1.12.48.43.06.89.07,1.38.04.49-.03.91-.04,1.25-.04h14.26c1.38,0,2.58-.07,3.59-.22,1.01-.14,1.92-.45,2.72-.91.81-.46,1.53-1.08,2.16-1.86.63-.78,1.24-1.83,1.81-3.15h1.38l-2.16,10.28Z"/>
    </g>
  </g>
</svg>