<svg xmlns="http://www.w3.org/2000/svg" xmlns:xlink="http://www.w3.org/1999/xlink" width="800" zoomAndPan="magnify" viewBox="0 0 600 299.999988" height="400" preserveAspectRatio="xMidYMid meet" version="1.0"><defs><clipPath id="a067348c08"><path d="M 109.660156 24.535156 L 490.660156 24.535156 L 490.660156 275.785156 L 109.660156 275.785156 Z M 109.660156 24.535156 " clip-rule="nonzero"/></clipPath></defs><g clip-path="url(#a067348c08)"><path fill="#333333" d="M 481.5 269.035156 C 481.019531 265.589844 479.761719 262.394531 477.835938 259.820312 C 475.125 256.191406 471.433594 254.191406 467.4375 254.191406 C 463.445312 254.191406 459.75 256.191406 457.039062 259.820312 C 455.117188 262.394531 453.859375 265.589844 453.378906 269.035156 L 447.039062 269.035156 C 447.566406 262.457031 449.714844 256.390625 453.222656 251.695312 C 457.085938 246.527344 462.132812 243.679688 467.4375 243.679688 C 473.847656 243.679688 479.902344 247.914062 483.800781 255.058594 L 483.800781 269.035156 Z M 459.855469 269.035156 C 460.824219 264.214844 463.902344 260.578125 467.4375 260.578125 C 470.972656 260.578125 474.054688 264.214844 475.019531 269.035156 Z M 376.703125 224.796875 L 388.722656 224.796875 C 386.472656 231.359375 384.695312 238.203125 383.421875 245.203125 C 382.007812 252.976562 381.207031 260.976562 381.042969 269.035156 L 376.703125 269.035156 Z M 349.074219 269.035156 C 348.59375 265.589844 347.335938 262.394531 345.414062 259.820312 C 342.699219 256.191406 339.007812 254.191406 335.011719 254.191406 C 331.019531 254.191406 327.324219 256.191406 324.613281 259.820312 C 322.691406 262.394531 321.433594 265.589844 320.953125 269.035156 L 314.617188 269.035156 C 315.140625 262.457031 317.289062 256.390625 320.796875 251.695312 C 324.660156 246.527344 329.707031 243.679688 335.011719 243.679688 C 341.421875 243.679688 347.480469 247.914062 351.375 255.058594 L 351.375 269.035156 Z M 327.429688 269.035156 C 328.398438 264.214844 331.476562 260.578125 335.011719 260.578125 C 338.546875 260.578125 341.628906 264.214844 342.59375 269.035156 Z M 244.277344 224.796875 L 256.296875 224.796875 C 254.050781 231.359375 252.269531 238.203125 250.996094 245.203125 C 249.582031 252.976562 248.785156 260.976562 248.617188 269.035156 L 244.277344 269.035156 Z M 116.042969 86.738281 L 237.890625 222.824219 L 237.890625 263.878906 L 116.042969 127.789062 Z M 357.753906 221.503906 C 357.753906 221.4375 357.75 221.367188 357.746094 221.300781 C 357.738281 221.25 357.734375 221.203125 357.726562 221.15625 C 357.714844 221.101562 357.710938 221.046875 357.699219 220.992188 C 357.6875 220.9375 357.675781 220.886719 357.664062 220.835938 C 357.652344 220.789062 357.640625 220.738281 357.625 220.691406 C 357.609375 220.636719 357.59375 220.585938 357.574219 220.539062 C 357.558594 220.492188 357.542969 220.441406 357.523438 220.394531 C 357.5 220.347656 357.476562 220.300781 357.457031 220.253906 C 357.4375 220.207031 357.414062 220.160156 357.386719 220.109375 C 357.363281 220.066406 357.335938 220.023438 357.308594 219.976562 C 357.285156 219.933594 357.257812 219.886719 357.230469 219.84375 C 357.199219 219.796875 357.164062 219.753906 357.128906 219.707031 C 357.101562 219.667969 357.074219 219.628906 357.042969 219.59375 C 357 219.539062 356.953125 219.488281 356.90625 219.433594 C 356.882812 219.410156 356.863281 219.386719 356.84375 219.363281 L 347.5625 209.953125 L 357.140625 209.953125 L 370.316406 223.316406 L 370.316406 264.910156 L 357.761719 253 L 357.761719 221.605469 C 357.761719 221.570312 357.753906 221.539062 357.753906 221.503906 Z M 322.734375 224.796875 L 351.375 224.796875 L 351.375 244.449219 C 346.753906 239.863281 341.039062 237.292969 335.011719 237.292969 C 327.644531 237.292969 320.78125 241.050781 315.683594 247.875 C 311.367188 253.648438 308.765625 261.070312 308.214844 269.035156 L 298.292969 269.035156 C 299.21875 249.019531 308.78125 231.582031 322.734375 224.796875 Z M 290.089844 224.796875 L 311.277344 224.796875 C 306.84375 228.617188 302.96875 233.507812 299.824219 239.300781 C 295.066406 248.074219 292.351562 258.296875 291.902344 269.035156 L 278.132812 269.035156 C 278.601562 252.609375 282.707031 237.410156 290.089844 224.796875 Z M 282.789062 224.796875 C 275.96875 237.707031 272.183594 252.835938 271.746094 269.035156 L 255 269.035156 C 255.328125 253.527344 258.039062 238.671875 263.066406 224.796875 Z M 272.972656 157.359375 L 272.972656 188.175781 C 272.820312 188.730469 272.828125 189.304688 272.972656 189.839844 L 272.972656 198.414062 L 164.34375 77.167969 L 164.34375 36.113281 Z M 382.113281 203.570312 C 381.949219 195.511719 381.148438 187.511719 379.738281 179.738281 C 378.460938 172.738281 376.683594 165.894531 374.433594 159.332031 L 386.457031 159.332031 L 386.457031 203.570312 Z M 358.988281 203.570312 C 358.546875 187.367188 354.765625 172.238281 347.945312 159.332031 L 367.664062 159.332031 C 372.695312 173.203125 375.40625 188.058594 375.730469 203.570312 Z M 339.953125 203.570312 L 338.832031 203.570312 C 338.382812 192.828125 335.667969 182.609375 330.90625 173.835938 C 327.765625 168.042969 323.886719 163.152344 319.453125 159.332031 L 340.640625 159.332031 C 348.023438 171.941406 352.132812 187.140625 352.601562 203.570312 Z M 322.519531 203.570312 C 321.96875 195.605469 319.363281 188.183594 315.046875 182.40625 C 309.949219 175.585938 303.085938 171.828125 295.71875 171.828125 C 289.695312 171.828125 283.980469 174.398438 279.355469 178.980469 L 279.355469 159.332031 L 307.996094 159.332031 C 321.953125 166.117188 331.515625 183.550781 332.441406 203.570312 Z M 301.671875 203.570312 L 286.503906 203.570312 C 287.472656 198.746094 290.550781 195.109375 294.085938 195.109375 C 297.625 195.109375 300.703125 198.746094 301.671875 203.570312 Z M 308.148438 203.570312 C 307.667969 200.121094 306.410156 196.925781 304.488281 194.355469 C 301.777344 190.726562 298.082031 188.726562 294.085938 188.726562 C 290.09375 188.726562 286.398438 190.726562 283.6875 194.355469 C 281.765625 196.925781 280.507812 200.121094 280.027344 203.570312 L 279.355469 203.570312 L 279.355469 189.589844 C 283.253906 182.449219 289.3125 178.210938 295.71875 178.210938 C 301.023438 178.210938 306.070312 181.058594 309.933594 186.226562 C 313.445312 190.925781 315.589844 196.992188 316.117188 203.570312 Z M 273.210938 30.957031 L 382.5 152.945312 L 277.589844 152.945312 L 168.300781 30.957031 Z M 242.511719 218.414062 L 119.996094 81.578125 L 159.726562 81.578125 L 273.785156 208.890625 C 273.804688 208.910156 273.824219 208.925781 273.839844 208.945312 C 273.882812 208.992188 273.929688 209.039062 273.976562 209.082031 C 274.011719 209.117188 274.046875 209.148438 274.082031 209.179688 C 274.128906 209.21875 274.175781 209.253906 274.222656 209.292969 C 274.261719 209.324219 274.300781 209.351562 274.34375 209.382812 C 274.390625 209.414062 274.441406 209.445312 274.492188 209.476562 C 274.53125 209.5 274.574219 209.527344 274.617188 209.550781 C 274.671875 209.582031 274.726562 209.609375 274.785156 209.636719 C 274.824219 209.65625 274.863281 209.675781 274.902344 209.691406 C 274.972656 209.726562 275.050781 209.75 275.125 209.777344 C 275.148438 209.785156 275.175781 209.796875 275.199219 209.804688 C 275.503906 209.902344 275.828125 209.953125 276.164062 209.953125 L 338.597656 209.953125 L 346.9375 218.414062 L 321.925781 218.414062 C 321.921875 218.414062 321.921875 218.414062 321.917969 218.414062 Z M 357.335938 81.578125 L 479.851562 218.414062 L 454.351562 218.414062 C 454.347656 218.414062 454.34375 218.414062 454.34375 218.414062 L 374.449219 218.414062 L 366.109375 209.953125 L 389.648438 209.953125 C 391.410156 209.953125 392.839844 208.523438 392.839844 206.761719 L 392.839844 156.136719 C 392.839844 156.117188 392.835938 156.097656 392.835938 156.078125 C 392.835938 156.019531 392.832031 155.960938 392.828125 155.902344 C 392.824219 155.855469 392.820312 155.804688 392.816406 155.757812 C 392.808594 155.703125 392.796875 155.648438 392.792969 155.59375 C 392.78125 155.546875 392.773438 155.496094 392.761719 155.445312 C 392.75 155.394531 392.738281 155.34375 392.722656 155.292969 C 392.710938 155.242188 392.699219 155.195312 392.679688 155.144531 C 392.664062 155.097656 392.644531 155.046875 392.625 155 C 392.605469 154.949219 392.589844 154.902344 392.570312 154.855469 C 392.546875 154.808594 392.523438 154.761719 392.5 154.714844 C 392.480469 154.667969 392.453125 154.621094 392.429688 154.574219 C 392.402344 154.53125 392.378906 154.488281 392.351562 154.445312 C 392.320312 154.398438 392.292969 154.351562 392.261719 154.308594 C 392.234375 154.269531 392.203125 154.230469 392.171875 154.191406 C 392.136719 154.144531 392.101562 154.101562 392.066406 154.058594 C 392.050781 154.042969 392.039062 154.023438 392.027344 154.007812 L 327.136719 81.578125 Z M 455.160156 224.796875 L 483.800781 224.796875 L 483.800781 244.449219 C 479.179688 239.863281 473.464844 237.292969 467.4375 237.292969 C 460.070312 237.292969 453.207031 241.050781 448.109375 247.875 C 443.792969 253.648438 441.1875 261.070312 440.640625 269.035156 L 430.71875 269.035156 C 431.640625 249.019531 441.203125 231.582031 455.160156 224.796875 Z M 422.515625 224.796875 L 443.703125 224.796875 C 439.269531 228.617188 435.394531 233.507812 432.25 239.300781 C 427.492188 248.074219 424.773438 258.296875 424.324219 269.035156 L 410.558594 269.035156 C 411.027344 252.609375 415.132812 237.410156 422.515625 224.796875 Z M 415.214844 224.796875 C 408.394531 237.707031 404.609375 252.835938 404.171875 269.035156 L 387.425781 269.035156 C 387.753906 253.527344 390.464844 238.671875 395.492188 224.796875 Z M 490.1875 253.640625 L 490.1875 221.605469 C 490.1875 221.585938 490.183594 221.566406 490.183594 221.542969 C 490.183594 221.488281 490.175781 221.425781 490.175781 221.367188 C 490.171875 221.320312 490.167969 221.273438 490.164062 221.226562 C 490.15625 221.171875 490.148438 221.117188 490.136719 221.0625 C 490.128906 221.011719 490.121094 220.964844 490.109375 220.914062 C 490.097656 220.863281 490.082031 220.8125 490.070312 220.761719 C 490.054688 220.710938 490.042969 220.660156 490.023438 220.613281 C 490.011719 220.5625 489.992188 220.515625 489.972656 220.464844 C 489.957031 220.417969 489.9375 220.367188 489.914062 220.324219 C 489.894531 220.273438 489.871094 220.226562 489.847656 220.183594 C 489.824219 220.132812 489.800781 220.089844 489.773438 220.042969 C 489.753906 220 489.722656 219.957031 489.699219 219.914062 C 489.667969 219.867188 489.636719 219.820312 489.605469 219.773438 C 489.578125 219.734375 489.550781 219.699219 489.519531 219.660156 C 489.484375 219.613281 489.449219 219.566406 489.410156 219.523438 C 489.398438 219.507812 489.386719 219.492188 489.371094 219.476562 L 361.140625 76.257812 C 361.121094 76.238281 361.101562 76.21875 361.082031 76.199219 C 361.042969 76.15625 361.003906 76.117188 360.960938 76.078125 C 360.925781 76.042969 360.886719 76.007812 360.847656 75.976562 C 360.808594 75.941406 360.769531 75.910156 360.730469 75.878906 C 360.6875 75.84375 360.640625 75.8125 360.597656 75.78125 C 360.558594 75.75 360.519531 75.722656 360.476562 75.699219 C 360.429688 75.667969 360.382812 75.640625 360.335938 75.613281 C 360.292969 75.589844 360.25 75.566406 360.207031 75.542969 C 360.160156 75.519531 360.109375 75.496094 360.0625 75.476562 C 360.015625 75.453125 359.964844 75.433594 359.917969 75.414062 C 359.871094 75.398438 359.824219 75.378906 359.777344 75.363281 C 359.726562 75.347656 359.671875 75.332031 359.621094 75.316406 C 359.574219 75.300781 359.527344 75.289062 359.480469 75.28125 C 359.425781 75.265625 359.371094 75.257812 359.316406 75.246094 C 359.265625 75.238281 359.21875 75.230469 359.167969 75.222656 C 359.117188 75.21875 359.066406 75.210938 359.011719 75.207031 C 358.957031 75.203125 358.902344 75.199219 358.84375 75.199219 C 358.816406 75.199219 358.789062 75.195312 358.761719 75.195312 L 321.417969 75.195312 L 277.015625 25.632812 C 276.996094 25.617188 276.976562 25.597656 276.957031 25.578125 C 276.917969 25.535156 276.878906 25.492188 276.835938 25.453125 C 276.800781 25.417969 276.761719 25.386719 276.722656 25.351562 C 276.683594 25.320312 276.644531 25.285156 276.605469 25.253906 C 276.5625 25.222656 276.519531 25.1875 276.472656 25.15625 C 276.433594 25.128906 276.394531 25.101562 276.351562 25.078125 C 276.304688 25.046875 276.257812 25.015625 276.210938 24.988281 C 276.167969 24.964844 276.125 24.941406 276.078125 24.917969 C 276.03125 24.894531 275.984375 24.871094 275.9375 24.851562 C 275.890625 24.832031 275.839844 24.808594 275.792969 24.792969 C 275.746094 24.773438 275.699219 24.753906 275.652344 24.738281 C 275.601562 24.722656 275.546875 24.707031 275.496094 24.691406 C 275.449219 24.679688 275.402344 24.667969 275.355469 24.65625 C 275.300781 24.644531 275.246094 24.632812 275.191406 24.625 C 275.144531 24.617188 275.09375 24.605469 275.042969 24.601562 C 274.992188 24.59375 274.941406 24.589844 274.886719 24.585938 C 274.832031 24.582031 274.777344 24.578125 274.71875 24.574219 C 274.691406 24.574219 274.664062 24.570312 274.636719 24.570312 L 161.152344 24.570312 C 161.132812 24.570312 161.113281 24.574219 161.09375 24.574219 C 161.03125 24.574219 160.972656 24.582031 160.914062 24.585938 C 160.867188 24.589844 160.820312 24.59375 160.773438 24.597656 C 160.71875 24.605469 160.664062 24.613281 160.609375 24.621094 C 160.558594 24.628906 160.511719 24.640625 160.460938 24.652344 C 160.410156 24.660156 160.359375 24.675781 160.308594 24.691406 C 160.257812 24.703125 160.207031 24.714844 160.160156 24.734375 C 160.109375 24.75 160.0625 24.765625 160.011719 24.785156 C 159.964844 24.804688 159.917969 24.820312 159.871094 24.84375 C 159.820312 24.863281 159.777344 24.886719 159.730469 24.910156 C 159.683594 24.933594 159.636719 24.957031 159.589844 24.984375 C 159.546875 25.007812 159.503906 25.035156 159.460938 25.0625 C 159.414062 25.089844 159.367188 25.121094 159.324219 25.152344 C 159.285156 25.179688 159.246094 25.207031 159.207031 25.238281 C 159.160156 25.273438 159.113281 25.308594 159.070312 25.347656 C 159.054688 25.363281 159.039062 25.371094 159.023438 25.386719 C 159.003906 25.40625 158.984375 25.425781 158.964844 25.445312 C 158.921875 25.484375 158.882812 25.523438 158.84375 25.5625 C 158.808594 25.601562 158.773438 25.640625 158.742188 25.679688 C 158.707031 25.71875 158.675781 25.757812 158.640625 25.796875 C 158.609375 25.839844 158.578125 25.882812 158.542969 25.929688 C 158.515625 25.96875 158.492188 26.007812 158.464844 26.050781 C 158.433594 26.097656 158.40625 26.144531 158.378906 26.191406 C 158.355469 26.234375 158.332031 26.277344 158.308594 26.320312 C 158.285156 26.367188 158.261719 26.417969 158.238281 26.460938 C 158.21875 26.511719 158.199219 26.5625 158.179688 26.609375 C 158.160156 26.65625 158.144531 26.699219 158.128906 26.746094 C 158.113281 26.800781 158.097656 26.851562 158.082031 26.90625 C 158.066406 26.953125 158.054688 27 158.042969 27.046875 C 158.03125 27.101562 158.023438 27.152344 158.011719 27.207031 C 158.003906 27.257812 157.996094 27.308594 157.988281 27.359375 C 157.984375 27.410156 157.976562 27.460938 157.972656 27.515625 C 157.96875 27.570312 157.964844 27.625 157.964844 27.683594 C 157.964844 27.710938 157.960938 27.738281 157.960938 27.765625 L 157.960938 75.195312 L 112.851562 75.195312 C 112.832031 75.195312 112.8125 75.199219 112.789062 75.199219 C 112.734375 75.199219 112.675781 75.203125 112.617188 75.207031 C 112.570312 75.210938 112.519531 75.214844 112.472656 75.21875 C 112.417969 75.226562 112.363281 75.234375 112.308594 75.246094 C 112.257812 75.253906 112.210938 75.261719 112.160156 75.273438 C 112.109375 75.285156 112.058594 75.296875 112.007812 75.3125 C 111.957031 75.324219 111.910156 75.339844 111.859375 75.355469 C 111.808594 75.371094 111.761719 75.390625 111.714844 75.410156 C 111.664062 75.425781 111.617188 75.445312 111.570312 75.464844 C 111.523438 75.488281 111.476562 75.511719 111.429688 75.53125 C 111.382812 75.558594 111.335938 75.578125 111.289062 75.605469 C 111.246094 75.628906 111.203125 75.65625 111.160156 75.683594 C 111.113281 75.714844 111.066406 75.742188 111.023438 75.773438 C 110.984375 75.800781 110.945312 75.832031 110.90625 75.859375 C 110.859375 75.898438 110.816406 75.933594 110.769531 75.972656 C 110.753906 75.984375 110.738281 75.996094 110.722656 76.007812 C 110.703125 76.027344 110.683594 76.046875 110.664062 76.066406 C 110.621094 76.105469 110.582031 76.144531 110.542969 76.1875 C 110.507812 76.222656 110.472656 76.261719 110.441406 76.300781 C 110.40625 76.339844 110.375 76.378906 110.34375 76.417969 C 110.308594 76.460938 110.277344 76.507812 110.242188 76.550781 C 110.214844 76.589844 110.191406 76.628906 110.164062 76.671875 C 110.132812 76.71875 110.105469 76.765625 110.078125 76.8125 C 110.054688 76.855469 110.03125 76.898438 110.007812 76.945312 C 109.984375 76.992188 109.960938 77.039062 109.9375 77.085938 C 109.917969 77.132812 109.898438 77.183594 109.878906 77.230469 C 109.863281 77.277344 109.84375 77.324219 109.828125 77.371094 C 109.8125 77.421875 109.796875 77.476562 109.78125 77.527344 C 109.765625 77.574219 109.753906 77.621094 109.746094 77.667969 C 109.730469 77.722656 109.722656 77.777344 109.710938 77.828125 C 109.703125 77.878906 109.695312 77.933594 109.6875 77.984375 C 109.683594 78.035156 109.675781 78.082031 109.671875 78.136719 C 109.667969 78.191406 109.664062 78.25 109.664062 78.304688 C 109.664062 78.332031 109.660156 78.359375 109.660156 78.386719 L 109.660156 129.011719 C 109.660156 129.796875 109.949219 130.554688 110.472656 131.140625 L 238.707031 274.359375 C 238.722656 274.375 238.742188 274.394531 238.761719 274.410156 C 238.804688 274.457031 238.851562 274.503906 238.898438 274.550781 C 238.933594 274.582031 238.96875 274.613281 239.003906 274.644531 C 239.050781 274.683594 239.097656 274.722656 239.144531 274.757812 C 239.183594 274.789062 239.222656 274.820312 239.261719 274.847656 C 239.3125 274.878906 239.359375 274.910156 239.410156 274.941406 C 239.453125 274.96875 239.492188 274.996094 239.535156 275.019531 C 239.589844 275.046875 239.648438 275.074219 239.707031 275.101562 C 239.746094 275.121094 239.78125 275.144531 239.820312 275.160156 C 239.894531 275.191406 239.96875 275.214844 240.042969 275.242188 C 240.070312 275.25 240.09375 275.261719 240.121094 275.273438 C 240.425781 275.367188 240.75 275.421875 241.085938 275.421875 L 354.570312 275.421875 C 356.332031 275.421875 357.761719 273.992188 357.761719 272.230469 L 357.761719 261.800781 L 371.203125 274.542969 C 371.820312 275.128906 372.609375 275.421875 373.398438 275.421875 C 373.417969 275.421875 373.433594 275.417969 373.453125 275.417969 C 373.472656 275.417969 373.492188 275.421875 373.507812 275.421875 L 486.992188 275.421875 C 488.757812 275.421875 490.1875 273.992188 490.1875 272.230469 L 490.1875 255.308594 C 490.328125 254.769531 490.339844 254.195312 490.1875 253.640625 " fill-opacity="1" fill-rule="nonzero"/></g></svg>