<svg xmlns="http://www.w3.org/2000/svg" xmlns:xlink="http://www.w3.org/1999/xlink" width="800" zoomAndPan="magnify" viewBox="0 0 600 299.999988" height="400" preserveAspectRatio="xMidYMid meet" version="1.0"><defs><clipPath id="d54b9578a6"><path d="M 187.699219 23.089844 L 411.929688 23.089844 L 411.929688 277.019531 L 187.699219 277.019531 Z M 187.699219 23.089844 " clip-rule="nonzero"/></clipPath></defs><g clip-path="url(#d54b9578a6)"><path fill="#333333" d="M 247.160156 236.183594 C 251.457031 236.183594 255.785156 236.640625 259.851562 237.808594 C 274.058594 241.875 292.203125 257.777344 299.816406 264.898438 C 307.429688 257.777344 325.566406 241.875 339.792969 237.808594 C 354.273438 233.632812 372.125 238.503906 379.628906 240.960938 L 399.792969 215.945312 C 389.707031 207.007812 364.085938 181.238281 364.085938 150.050781 C 364.085938 118.867188 389.707031 93.097656 399.792969 84.160156 L 379.628906 59.132812 C 372.125 61.613281 354.265625 66.460938 339.78125 62.296875 C 325.566406 58.230469 307.429688 42.328125 299.816406 35.207031 C 292.203125 42.328125 274.058594 58.230469 259.851562 62.296875 C 245.335938 66.472656 227.5 61.613281 220.003906 59.132812 L 199.832031 84.160156 C 209.929688 93.097656 235.550781 118.867188 235.550781 150.050781 C 235.550781 181.238281 209.929688 207.007812 199.832031 215.945312 L 220.003906 240.972656 C 225.402344 239.1875 236.152344 236.183594 247.160156 236.183594 Z M 299.816406 277.019531 C 298.519531 277.019531 297.222656 276.523438 296.234375 275.53125 C 295.996094 275.296875 272.625 252.023438 257.0625 247.570312 C 242.011719 243.253906 220.390625 251.605469 220.171875 251.675781 C 218.113281 252.480469 215.769531 251.875 214.375 250.152344 L 188.824219 218.457031 C 187.960938 217.394531 187.574219 216.027344 187.734375 214.675781 C 187.878906 213.316406 188.582031 212.089844 189.652344 211.242188 C 190.011719 210.96875 225.410156 183.042969 225.410156 150.050781 C 225.410156 117.0625 190.011719 89.140625 189.652344 88.863281 C 188.582031 88.019531 187.878906 86.789062 187.734375 85.425781 C 187.574219 84.078125 187.960938 82.710938 188.824219 81.648438 L 214.375 49.957031 C 215.769531 48.230469 218.113281 47.617188 220.171875 48.429688 C 220.390625 48.511719 241.964844 56.863281 257.0625 52.535156 C 270 48.835938 289.71875 31.101562 296.234375 24.574219 C 298.210938 22.589844 301.421875 22.589844 303.402344 24.574219 C 303.636719 24.8125 327 48.085938 342.5625 52.535156 C 357.691406 56.863281 379.253906 48.511719 379.457031 48.429688 C 381.511719 47.617188 383.875 48.230469 385.261719 49.957031 L 410.800781 81.648438 C 411.660156 82.710938 412.050781 84.078125 411.890625 85.425781 C 411.746094 86.789062 411.039062 88.019531 409.972656 88.863281 C 409.613281 89.140625 374.226562 117.0625 374.226562 150.050781 C 374.226562 183.042969 409.613281 210.96875 409.972656 211.242188 C 411.039062 212.089844 411.746094 213.316406 411.890625 214.675781 C 412.050781 216.027344 411.660156 217.394531 410.800781 218.457031 L 385.261719 250.152344 C 383.875 251.875 381.511719 252.480469 379.457031 251.675781 C 379.253906 251.605469 357.703125 243.265625 342.574219 247.570312 C 329.625 251.273438 309.90625 269.003906 303.402344 275.53125 C 302.410156 276.523438 301.117188 277.019531 299.816406 277.019531 " fill-opacity="1" fill-rule="nonzero"/></g></svg>