<svg xmlns="http://www.w3.org/2000/svg" xmlns:xlink="http://www.w3.org/1999/xlink" width="800" zoomAndPan="magnify" viewBox="0 0 600 299.999988" height="400" preserveAspectRatio="xMidYMid meet" version="1.0"><defs><clipPath id="f278ef7db3"><path d="M 215.828125 31.238281 L 383.828125 31.238281 L 383.828125 268.988281 L 215.828125 268.988281 Z M 215.828125 31.238281 " clip-rule="nonzero"/></clipPath></defs><g clip-path="url(#f278ef7db3)"><path fill="#333333" d="M 369.273438 80.71875 L 364.324219 80.71875 L 364.324219 55.980469 C 364.324219 53.246094 362.105469 51.03125 359.375 51.03125 C 356.644531 51.03125 354.425781 53.246094 354.425781 55.980469 L 354.425781 60.925781 L 314.839844 60.925781 L 314.839844 60.015625 C 320.589844 57.96875 324.738281 52.523438 324.738281 46.082031 C 324.738281 37.898438 318.078125 31.238281 309.894531 31.238281 L 280.203125 31.238281 C 272.019531 31.238281 265.359375 37.898438 265.359375 46.082031 C 265.359375 52.523438 269.507812 57.96875 275.253906 60.015625 L 275.253906 80.71875 L 230.722656 80.71875 C 222.539062 80.71875 215.875 87.378906 215.875 95.566406 L 215.875 253.910156 C 215.875 262.09375 222.539062 268.753906 230.722656 268.753906 L 369.273438 268.753906 C 377.457031 268.753906 384.117188 262.09375 384.117188 253.910156 L 384.117188 95.566406 C 384.117188 87.378906 377.457031 80.71875 369.273438 80.71875 Z M 354.425781 70.824219 L 354.425781 80.71875 L 314.839844 80.71875 L 314.839844 70.824219 Z M 280.203125 41.132812 L 309.894531 41.132812 C 312.625 41.132812 314.839844 43.359375 314.839844 46.082031 C 314.839844 48.804688 312.625 51.03125 309.894531 51.03125 L 280.203125 51.03125 C 277.472656 51.03125 275.253906 48.804688 275.253906 46.082031 C 275.253906 43.359375 277.472656 41.132812 280.203125 41.132812 Z M 295.046875 70.824219 L 304.945312 70.824219 L 304.945312 80.71875 L 285.152344 80.71875 L 285.152344 60.925781 L 295.046875 60.925781 C 292.316406 60.925781 290.101562 63.144531 290.101562 65.875 C 290.101562 68.605469 292.316406 70.824219 295.046875 70.824219 Z M 374.21875 253.910156 C 374.21875 256.628906 372.003906 258.855469 369.273438 258.855469 L 230.722656 258.855469 C 227.988281 258.855469 225.773438 256.628906 225.773438 253.910156 L 225.773438 239.0625 L 374.21875 239.0625 Z M 374.21875 229.167969 L 225.773438 229.167969 L 225.773438 120.304688 L 374.21875 120.304688 Z M 374.21875 110.410156 L 225.773438 110.410156 L 225.773438 95.566406 C 225.773438 92.84375 227.988281 90.617188 230.722656 90.617188 L 369.273438 90.617188 C 372.003906 90.617188 374.21875 92.84375 374.21875 95.566406 Z M 374.21875 110.410156 " fill-opacity="1" fill-rule="nonzero"/></g></svg>