<svg xmlns="http://www.w3.org/2000/svg" xmlns:xlink="http://www.w3.org/1999/xlink" width="800" zoomAndPan="magnify" viewBox="0 0 600 299.999988" height="400" preserveAspectRatio="xMidYMid meet" version="1.0"><defs><clipPath id="fad29eea40"><path d="M 226.753906 33.734375 L 373.003906 33.734375 L 373.003906 266.234375 L 226.753906 266.234375 Z M 226.753906 33.734375 " clip-rule="nonzero"/></clipPath></defs><g clip-path="url(#fad29eea40)"><path fill="#333333" d="M 372.058594 35.121094 C 371.246094 34.238281 370.089844 33.734375 368.890625 33.734375 L 231.097656 33.734375 C 229.894531 33.734375 228.746094 34.238281 227.929688 35.125 C 227.117188 36.011719 226.707031 37.195312 226.804688 38.398438 L 244.015625 244.910156 L 244.015625 261.953125 C 244.015625 264.332031 245.945312 266.257812 248.324219 266.257812 L 351.667969 266.257812 C 354.046875 266.257812 355.972656 264.332031 355.972656 261.953125 L 355.972656 244.882812 L 373.179688 38.394531 C 373.28125 37.195312 372.875 36.007812 372.058594 35.121094 Z M 347.359375 257.644531 L 252.628906 257.644531 L 252.628906 249.035156 L 347.359375 249.035156 Z M 347.703125 240.421875 L 252.285156 240.421875 L 235.78125 42.347656 L 364.210938 42.347656 Z M 347.703125 240.421875 " fill-opacity="1" fill-rule="nonzero"/></g><path fill="#333333" d="M 339.105469 188.738281 C 339.226562 188.75 339.351562 188.753906 339.46875 188.753906 C 341.683594 188.753906 343.566406 187.054688 343.753906 184.804688 L 353.328125 69.957031 C 353.527344 67.585938 351.769531 65.503906 349.398438 65.304688 C 346.976562 65.113281 344.945312 66.871094 344.75 69.242188 L 335.175781 184.089844 C 334.976562 186.464844 336.734375 188.539062 339.105469 188.738281 Z M 339.105469 188.738281 " fill-opacity="1" fill-rule="nonzero"/></svg>